<svg width="18" height="13" viewBox="0 0 18 13" fill="none" xmlns="http://www.w3.org/2000/svg">
<path d="M15.8013 0.5H2.19866C0.986373 0.5 0 1.46862 0 2.65909V10.3409C0 11.5314 0.986373 12.5 2.19866 12.5H15.8013C17.0136 12.5 18 11.5314 18 10.3409V2.65932C18.0002 1.46862 17.0139 0.5 15.8013 0.5ZM14.727 1.90856L9 5.53185L3.27301 1.90856H14.727ZM15.8013 11.0917H2.19866C1.77719 11.0917 1.43438 10.7548 1.43438 10.3411V2.69923L8.5575 7.19724C8.56706 7.20311 8.57734 7.2071 8.58714 7.2125C8.59742 7.21813 8.60794 7.22353 8.61846 7.22869C8.67368 7.25663 8.73058 7.27917 8.78867 7.29396C8.79465 7.2956 8.80062 7.29631 8.8066 7.29771C8.87043 7.3125 8.93497 7.32166 8.99952 7.32166C8.99976 7.32166 9 7.32166 9 7.32166C9.00048 7.32166 9.00072 7.32166 9.00096 7.32166C9.0655 7.32166 9.13005 7.31274 9.19388 7.29771C9.19986 7.29631 9.20583 7.2956 9.21181 7.29396C9.2699 7.27917 9.32656 7.25663 9.38202 7.22869C9.39254 7.22353 9.40306 7.21813 9.41334 7.2125C9.42314 7.2071 9.43342 7.20311 9.44298 7.19724L16.5661 2.69923V10.3409C16.5659 10.7548 16.2228 11.0917 15.8013 11.0917Z" fill="#05C2B6"/>
</svg>
