<svg width="36" height="36" viewBox="0 0 36 36" fill="none" xmlns="http://www.w3.org/2000/svg">
<path d="M27.4426 12.9836H21.541V14.164H27.4426C28.4187 14.164 29.2132 14.9583 29.2132 15.9345V18.3105C28.7186 17.9357 28.1095 17.7051 27.4426 17.7051H8.55738C7.58127 17.7051 6.78683 16.9108 6.78683 15.9345C6.78683 14.9583 7.58127 14.164 8.55738 14.164H15.0492V12.9836H8.55738C6.93036 12.9836 5.60651 14.3074 5.60651 15.9345V33.0492C5.60651 34.6762 6.93023 36.0001 8.55738 36.0001H27.4426C29.0696 36.0001 30.3935 34.6763 30.3935 33.0492V31.2786V23.0163V20.6557V15.9344C30.3934 14.3074 29.0696 12.9836 27.4426 12.9836ZM29.213 30.0984H22.1311C20.504 30.0984 19.1802 28.7747 19.1802 27.1476C19.1802 25.5204 20.5039 24.1967 22.1311 24.1967H29.213V30.0984ZM29.213 23.0165H22.1311C19.853 23.0165 17.9999 24.8701 17.9999 27.1477C17.9999 29.4252 19.853 31.2789 22.1311 31.2789H29.213V33.0492C29.213 34.0253 28.4187 34.8197 27.4425 34.8197H8.55726C7.58114 34.8197 6.78671 34.0254 6.78671 33.0492V18.2939C7.28011 18.6651 7.89325 18.8853 8.55726 18.8853H27.4425C28.4186 18.8853 29.213 19.6796 29.213 20.6558V23.0165Z" fill="#05C2B6"/>
<path d="M27.4426 15.3442H8.55737V16.5246H27.4426V15.3442Z" fill="#05C2B6"/>
<path d="M18 15.9346C20.6075 15.9346 22.7213 13.8208 22.7213 11.2132C22.7213 8.60574 20.6075 6.49194 18 6.49194C15.3925 6.49194 13.2787 8.60574 13.2787 11.2132C13.2787 13.8208 15.3925 15.9346 18 15.9346Z" fill="white"/>
<path d="M18.5901 12.9836H17.4098C17.0846 12.9836 16.8195 12.7186 16.8195 12.3934H15.6392C15.6392 13.3695 16.4335 14.164 17.4098 14.164V14.7542H18.5901V14.164C19.5662 14.164 20.3606 13.3697 20.3606 12.3934C20.3606 11.4172 19.5663 10.6229 18.5901 10.6229H17.4098C17.0846 10.6229 16.8195 10.3578 16.8195 10.0326C16.8195 9.70744 17.0846 9.44267 17.4098 9.44267H18.5901C18.9153 9.44267 19.1803 9.70769 19.1803 10.0329H20.3606C20.3606 9.05678 19.5663 8.26234 18.5901 8.26234V7.67212H17.4098V8.26234C16.4337 8.26234 15.6392 9.05666 15.6392 10.0329C15.6392 11.0091 16.4335 11.8034 17.4098 11.8034H18.5901C18.9153 11.8034 19.1803 12.0685 19.1803 12.3937C19.1803 12.7189 18.9153 12.9836 18.5901 12.9836Z" fill="#05C2B6"/>
<path d="M20.3607 27.1475C20.3607 28.1236 21.155 28.9181 22.1312 28.9181C23.1074 28.9181 23.9018 28.1237 23.9018 27.1475C23.9018 26.1713 23.1074 25.377 22.1312 25.377C21.155 25.377 20.3607 26.1714 20.3607 27.1475ZM22.7213 27.1475C22.7213 27.4732 22.4563 27.7377 22.1311 27.7377C21.8059 27.7377 21.5409 27.4733 21.5409 27.1475C21.5409 26.8217 21.8059 26.5573 22.1311 26.5573C22.4563 26.5573 22.7213 26.8218 22.7213 27.1475Z" fill="#05C2B6"/>
<path d="M18.5901 0H17.4098V4.7213H18.5901V0Z" fill="#05C2B6"/>
<path d="M22.7213 1.77051H21.541V6.49181H22.7213V1.77051Z" fill="#05C2B6"/>
<path d="M14.459 2.95093H13.2787V6.4919H14.459V2.95093Z" fill="#05C2B6"/>
</svg>
