<svg width="36" height="36" viewBox="0 0 36 36" fill="none" xmlns="http://www.w3.org/2000/svg">
<path d="M25.3898 20.6156H19.4977V15.7359C19.4977 14.9063 18.8297 14.2383 18 14.2383C17.1703 14.2383 16.5023 14.9063 16.5023 15.7359V20.6156H10.6102C10.0055 20.5805 8.95781 21.1289 9.13359 22.3805L11.243 33.9961C11.3695 34.7062 11.9953 35.2266 12.7195 35.2266H23.2805C24.0047 35.2266 24.6234 34.7062 24.757 33.9961L26.8664 22.3805C27 21.8883 26.6625 20.6438 25.3898 20.6156ZM22.0289 32.2312H13.9711L12.4031 23.6109H23.5969L22.0289 32.2312Z" fill="#05C2B6"/>
<path d="M16.5094 9.675C16.2773 9.37969 16.1227 8.92266 16.0312 8.29688L14.857 8.51484C14.8992 9.11953 15.0539 9.63281 15.3211 10.0477C15.5883 10.4695 15.9047 10.7719 16.2703 10.9547C16.6359 11.1445 17.107 11.2711 17.6906 11.3484V12.5156H18.3797V11.3344C19.1953 11.2922 19.8633 11.0039 20.3766 10.4625C20.8898 9.92109 21.15 9.24609 21.15 8.4375C21.15 8.07188 21.0867 7.72734 20.9672 7.41094C20.8406 7.09453 20.6648 6.82031 20.4398 6.59531C20.2078 6.36328 19.9125 6.17344 19.5539 6.01172C19.3641 5.92734 18.9773 5.81484 18.3867 5.66719V2.31328C18.7664 2.39063 19.0687 2.55234 19.2867 2.79844C19.5047 3.04453 19.6453 3.39609 19.7156 3.85312L20.918 3.67031C20.8125 2.93203 20.5102 2.34844 19.9969 1.92656C19.5961 1.59609 19.0617 1.39219 18.3797 1.32891V0.773438H17.6906V1.32891C16.9172 1.40625 16.3336 1.61719 15.9398 1.96172C15.3492 2.475 15.0609 3.15 15.0609 3.97969C15.0609 4.44375 15.1594 4.86562 15.3633 5.23125C15.5672 5.59688 15.8484 5.88516 16.2211 6.09609C16.7203 6.37734 17.2125 6.56016 17.6906 6.65156V10.3641C17.2336 10.3148 16.8398 10.0898 16.5094 9.675ZM18.3727 6.81328C18.9984 7.01719 19.4203 7.24922 19.6242 7.50234C19.8352 7.7625 19.9406 8.1 19.9406 8.52187C19.9406 9.02109 19.793 9.43594 19.4977 9.77344C19.2023 10.1109 18.8297 10.3078 18.3727 10.3641V6.81328ZM16.5586 4.88672C16.3336 4.61953 16.2281 4.28906 16.2281 3.88828C16.2281 3.4875 16.3617 3.13594 16.6219 2.84766C16.882 2.55234 17.2406 2.36953 17.6977 2.30625V5.53359C17.1562 5.37187 16.7836 5.15391 16.5586 4.88672Z" fill="#05C2B6"/>
<path d="M31.3172 7.06641C26.2336 7.06641 22.0992 11.2008 22.0992 16.2844C22.0992 17.1141 22.7672 17.782 23.5969 17.782C28.6805 17.782 32.8148 13.6477 32.8148 8.56406C32.8148 7.74141 32.1469 7.06641 31.3172 7.06641ZM25.3477 14.5406C25.9383 12.5156 27.5414 10.9125 29.5734 10.3148C28.9758 12.3398 27.3727 13.943 25.3477 14.5406Z" fill="#05C2B6"/>
<path d="M12.4172 17.782C13.2469 17.782 13.9148 17.1141 13.9148 16.2844C13.9148 16.207 13.9078 16.1297 13.9008 16.0523C13.7742 11.0742 9.68906 7.06641 4.68281 7.06641C3.85312 7.06641 3.18516 7.73438 3.18516 8.56406C3.18516 13.6477 7.31953 17.782 12.4031 17.782C12.4031 17.782 12.4102 17.782 12.4172 17.782ZM6.42656 10.3148C8.45156 10.9055 10.0547 12.5086 10.6523 14.5406C8.62734 13.943 7.02422 12.3398 6.42656 10.3148Z" fill="#05C2B6"/>
</svg>
