<svg width="44" height="43" viewBox="0 0 44 43" fill="none" xmlns="http://www.w3.org/2000/svg">
<g filter="url(#filter0_d_24_174)">
<path d="M25.3756 32.625H25.375V31.5C25.375 29.6389 23.8611 28.125 22 28.125H8.5C6.63946 28.125 5.125 29.6389 5.12444 31.5V32.6251C4.50351 32.6254 4 33.1289 4 33.75C4 34.3713 4.50372 34.875 5.125 34.875H25.3756C25.9968 34.875 26.5006 34.3713 26.5006 33.75C26.5006 33.1287 25.9968 32.625 25.3756 32.625ZM8.5 30.375H22C22.6202 30.375 23.125 30.8798 23.125 31.5V32.625H7.37444V31.5006C7.375 30.8798 7.87984 30.375 8.5 30.375Z" fill="#05C2B6"/>
<path d="M36.625 9H19.75V6.75H20.875C21.4963 6.75 22 6.24628 22 5.625V2.25C22 1.62872 21.4963 1.125 20.875 1.125H9.625C9.00372 1.125 8.5 1.62872 8.5 2.25V5.625C8.5 6.24628 9.00372 6.75 9.625 6.75H10.75V18.0001L9.625 18C9.32673 18 9.04049 18.1187 8.82955 18.3296C8.61862 18.5406 8.5 18.8267 8.5 19.125V22.4994C8.5 23.1207 9.00372 23.625 9.625 23.625H20.875C21.1733 23.625 21.4595 23.5063 21.6704 23.2954C21.8814 23.0844 22 22.7983 22 22.5V19.1256C22 18.5043 21.4963 18.0006 20.875 18.0006L19.75 18.0005V15.75H36.625C38.4861 15.75 40 14.2361 40 12.375C40 10.5139 38.4861 9 36.625 9ZM19.75 21.375H10.75V20.25L19.75 20.2506V21.375ZM10.75 3.375H19.75V4.5H18.625H11.875H10.75V3.375ZM17.5 6.75V10.125V14.625V18H13V6.75H17.5ZM36.625 13.5H19.75V11.25H36.625C37.2452 11.25 37.75 11.7548 37.75 12.375C37.75 12.9952 37.2452 13.5 36.625 13.5Z" fill="#05C2B6"/>
</g>
<defs>
<filter id="filter0_d_24_174" x="0" y="0" width="44" height="44" filterUnits="userSpaceOnUse" color-interpolation-filters="sRGB">
<feFlood flood-opacity="0" result="BackgroundImageFix"/>
<feColorMatrix in="SourceAlpha" type="matrix" values="0 0 0 0 0 0 0 0 0 0 0 0 0 0 0 0 0 0 127 0" result="hardAlpha"/>
<feOffset dy="4"/>
<feGaussianBlur stdDeviation="2"/>
<feComposite in2="hardAlpha" operator="out"/>
<feColorMatrix type="matrix" values="0 0 0 0 0 0 0 0 0 0 0 0 0 0 0 0 0 0 0.25 0"/>
<feBlend mode="normal" in2="BackgroundImageFix" result="effect1_dropShadow_24_174"/>
<feBlend mode="normal" in="SourceGraphic" in2="effect1_dropShadow_24_174" result="shape"/>
</filter>
</defs>
</svg>
