<svg width="36" height="36" viewBox="0 0 36 36" fill="none" xmlns="http://www.w3.org/2000/svg">
<path d="M8.03981 34.7102C8.145 34.8159 8.28844 34.875 8.4375 34.875H23.3438C24.4294 34.875 25.3125 33.9919 25.3125 32.9062C25.3125 32.0648 24.7787 31.3504 24.0339 31.0691C24.1307 30.8571 24.1875 30.6231 24.1875 30.375C24.1875 29.7759 23.8714 29.2517 23.3994 28.9524C23.5389 28.7066 23.625 28.4271 23.625 28.125C23.625 27.1946 22.8679 26.4375 21.9375 26.4375H13.1704L11.0852 24.3523C10.98 24.2466 10.8366 24.1875 10.6875 24.1875H1.125V25.3125H10.4546L14.3235 29.1814C14.5176 29.376 14.625 29.6342 14.625 29.9087C14.625 30.4757 14.1637 30.9375 13.5962 30.9375C13.3217 30.9375 13.0635 30.8306 12.8689 30.636L10.5227 28.2898L9.72731 29.0852L12.0735 31.4314C12.4571 31.815 12.9611 32.0288 13.5 32.0529V32.0625H15.1875H22.5H23.3438C23.8089 32.0625 24.1875 32.4411 24.1875 32.9062C24.1875 33.3714 23.8089 33.75 23.3438 33.75H8.67037L5.46019 30.5398C5.355 30.4341 5.21156 30.375 5.0625 30.375H1.125V31.5H4.82963L8.03981 34.7102ZM14.2954 27.5625H21.9375C22.2474 27.5625 22.5 27.8151 22.5 28.125C22.5 28.4349 22.2474 28.6875 21.9375 28.6875H15.3669C15.2933 28.5812 15.2122 28.4794 15.1194 28.386L14.2954 27.5625ZM15.4766 30.9375C15.6454 30.6304 15.75 30.2833 15.75 29.9087C15.75 29.8761 15.7421 29.8446 15.7404 29.8125H21.9375H22.5C22.8099 29.8125 23.0625 30.0651 23.0625 30.375C23.0625 30.6849 22.8099 30.9375 22.5 30.9375H15.4766Z" fill="#05C2B6"/>
<path d="M27.9602 1.28981C27.855 1.18406 27.7116 1.125 27.5625 1.125H12.6562C11.5706 1.125 10.6875 2.00813 10.6875 3.09375C10.6875 3.93525 11.2213 4.65019 11.9661 4.93087C11.8693 5.14294 11.8125 5.37694 11.8125 5.625C11.8125 6.22406 12.1286 6.74831 12.6006 7.04756C12.4611 7.29338 12.375 7.57294 12.375 7.875C12.375 8.80538 13.1321 9.5625 14.0625 9.5625H22.8296L24.9148 11.6477C25.02 11.7534 25.1634 11.8125 25.3125 11.8125H34.875V10.6875H25.5454L21.6765 6.81862C21.4819 6.624 21.375 6.36581 21.375 6.09131C21.375 5.52375 21.8362 5.0625 22.4038 5.0625C22.6783 5.0625 22.9365 5.16937 23.1311 5.364L25.4773 7.71019L26.2727 6.91481L23.9265 4.56862C23.5429 4.185 23.0389 3.97125 22.5 3.94706V3.9375H20.8125H13.5H12.6562C12.1911 3.9375 11.8125 3.55894 11.8125 3.09375C11.8125 2.62856 12.1911 2.25 12.6562 2.25H27.3296L30.5398 5.46019C30.645 5.56594 30.7884 5.625 30.9375 5.625H34.875V4.5H31.1704L27.9602 1.28981ZM21.7046 8.4375H14.0625C13.7526 8.4375 13.5 8.18494 13.5 7.875C13.5 7.56506 13.7526 7.3125 14.0625 7.3125H20.6331C20.7067 7.41881 20.7877 7.52063 20.8806 7.614L21.7046 8.4375ZM20.5234 5.0625C20.3546 5.36963 20.25 5.71669 20.25 6.09131C20.25 6.12394 20.2579 6.15544 20.2596 6.1875H14.0625H13.5C13.1901 6.1875 12.9375 5.93494 12.9375 5.625C12.9375 5.31506 13.1901 5.0625 13.5 5.0625H20.5234Z" fill="#05C2B6"/>
<path d="M5.06249 22.4309C5.18624 22.4309 5.30999 22.3898 5.4118 22.3094C5.59236 22.1665 5.66774 21.928 5.60136 21.7075C5.24361 20.5094 5.06249 19.2623 5.06249 18.0001C5.06249 13.8477 7.07793 9.9192 10.4529 7.49033L9.79593 6.57739C6.12786 9.21664 3.93749 13.4871 3.93749 18.0001C3.93749 18.9186 4.0258 19.8305 4.2013 20.7243L2.53067 19.763L1.9693 20.7378L4.7818 22.3561C4.86899 22.4061 4.9663 22.4309 5.06249 22.4309Z" fill="#05C2B6"/>
<path d="M25.5471 28.5098L26.2041 29.4227C29.8721 26.7835 32.0625 22.513 32.0625 18C32.0625 17.2631 32.0051 16.5291 31.8921 15.8057L33.4502 16.7884L34.0504 15.8372L31.3751 14.1497C31.1799 14.0276 30.9302 14.0355 30.7434 14.1711C30.5572 14.3072 30.4729 14.5429 30.5302 14.7662C30.8002 15.8158 30.9375 16.9043 30.9375 18C30.9375 22.1524 28.9221 26.0809 25.5471 28.5098Z" fill="#05C2B6"/>
<path d="M18 25.3125C22.032 25.3125 25.3125 22.032 25.3125 18C25.3125 13.968 22.032 10.6875 18 10.6875C13.968 10.6875 10.6875 13.968 10.6875 18C10.6875 22.032 13.968 25.3125 18 25.3125ZM18 11.8125C21.4116 11.8125 24.1875 14.5884 24.1875 18C24.1875 21.4116 21.4116 24.1875 18 24.1875C14.5884 24.1875 11.8125 21.4116 11.8125 18C11.8125 14.5884 14.5884 11.8125 18 11.8125Z" fill="#05C2B6"/>
<path d="M16.875 21.375H17.4375V22.5H18.5625V21.375H19.4062C20.4919 21.375 21.375 20.4919 21.375 19.4062C21.375 18.7009 20.9987 18.0855 20.4396 17.7379C20.6719 17.4144 20.8125 17.0213 20.8125 16.5938C20.8125 15.5081 19.9294 14.625 18.8438 14.625H18.5625V13.5H17.4375V14.625H16.875C16.5645 14.625 16.3125 14.877 16.3125 15.1875V18V20.8125C16.3125 21.123 16.5645 21.375 16.875 21.375ZM19.4062 20.25H17.4375V18.5625H18.8438H19.4062C19.8714 18.5625 20.25 18.9411 20.25 19.4062C20.25 19.8714 19.8714 20.25 19.4062 20.25ZM17.4375 15.75H18.8438C19.3089 15.75 19.6875 16.1286 19.6875 16.5938C19.6875 17.0589 19.3089 17.4375 18.8438 17.4375H17.4375V15.75Z" fill="#05C2B6"/>
<path d="M14.0625 17.4375H12.9375V18.5625H14.0625V17.4375Z" fill="#05C2B6"/>
<path d="M23.0625 17.4375H21.9375V18.5625H23.0625V17.4375Z" fill="#05C2B6"/>
</svg>
