<svg width="36" height="36" viewBox="0 0 36 36" fill="none" xmlns="http://www.w3.org/2000/svg">
<g clip-path="url(#clip0_24_188)">
<path d="M24.45 0.0328979C22.338 0.203897 20.298 1.0169 18.615 2.3579C18.189 2.6969 12.846 8.0189 12.405 8.5409C11.727 9.3509 11.118 10.3499 10.725 11.2949C10.095 12.8069 9.807 14.5799 9.93 16.1729C10.152 19.0169 11.388 21.5069 13.527 23.4209C13.89 23.7449 14.496 24.2039 14.661 24.2759C14.862 24.3659 15.105 24.3989 15.3 24.3659C15.648 24.3029 15.705 24.2579 16.644 23.3279C17.13 22.8479 17.589 22.3679 17.67 22.2629C18.021 21.7979 18.213 21.2279 18.216 20.6399C18.222 20.0939 18.102 19.8629 17.643 19.5209C16.779 18.8819 16.104 17.9609 15.786 16.9889C15.594 16.4099 15.555 16.1309 15.555 15.4049C15.555 14.8319 15.564 14.7029 15.624 14.4239C15.795 13.6199 16.161 12.8369 16.629 12.2549C16.809 12.0329 21.819 7.0169 22.08 6.7979C23.4 5.6879 25.236 5.3399 26.916 5.8799C27.291 5.9999 27.912 6.3149 28.26 6.5639C28.605 6.8099 29.175 7.3709 29.403 7.6949C30.075 8.6399 30.396 9.7169 30.351 10.8449C30.309 11.9069 30 12.8069 29.373 13.6949C29.28 13.8299 28.902 14.2439 28.512 14.6399C28.134 15.0269 27.792 15.3929 27.756 15.4529C27.66 15.6149 27.591 15.9179 27.609 16.1099C27.618 16.1999 27.672 16.4219 27.729 16.6049C28.059 17.6159 28.239 18.5939 28.332 19.8179C28.365 20.2859 28.383 20.3849 28.449 20.5289C28.551 20.7509 28.758 20.9519 29.004 21.0689C29.184 21.1559 29.235 21.1649 29.475 21.1649C29.958 21.1649 29.886 21.2249 31.758 19.3439C33.477 17.6189 33.693 17.3759 34.215 16.5899C35.148 15.1859 35.706 13.6679 35.928 11.9249C35.994 11.4089 36.006 10.0529 35.946 9.5699C35.775 8.1749 35.439 7.0349 34.857 5.8769C34.335 4.8299 33.717 3.9839 32.853 3.1169C31.983 2.2499 31.134 1.6409 30.027 1.0949C28.308 0.248898 26.367 -0.120102 24.45 0.0328979Z" fill="#05C2B6"/>
<path d="M20.652 11.6399C20.349 11.7029 20.265 11.7689 19.356 12.6719C18.87 13.1519 18.408 13.6319 18.327 13.7399C17.982 14.1989 17.787 14.7749 17.781 15.3599C17.775 15.9059 17.892 16.1339 18.36 16.4819C19.446 17.2919 20.151 18.4049 20.388 19.6949C20.466 20.1119 20.466 21.1049 20.391 21.4949C20.253 22.1969 19.932 22.9619 19.539 23.5199C19.377 23.7509 18.846 24.2969 16.743 26.4089C15.312 27.8429 14.043 29.0999 13.92 29.2019C11.841 30.9479 8.673 30.7019 6.885 28.6589C5.64 27.2369 5.301 25.2329 6 23.4479C6.3 22.6859 6.6 22.2629 7.503 21.3449C8.241 20.5919 8.304 20.5049 8.373 20.1839C8.418 19.9739 8.391 19.7789 8.25 19.3349C7.929 18.3269 7.761 17.4059 7.668 16.1819C7.635 15.7169 7.617 15.6149 7.554 15.4769C7.437 15.2279 7.287 15.0749 7.026 14.9489C6.813 14.8409 6.78 14.8349 6.525 14.8349C6.042 14.8349 6.114 14.7749 4.242 16.6559C2.565 18.3419 2.322 18.6089 1.83 19.3379C0.0599961 21.9509 -0.456004 25.2299 0.419996 28.2869C0.815996 29.6609 1.503 30.9689 2.421 32.0969C2.754 32.5049 3.495 33.2459 3.903 33.5789C5.529 34.9049 7.38 35.6759 9.57 35.9459C10.056 36.0059 11.409 35.9939 11.925 35.9279C14.091 35.6519 15.942 34.8509 17.562 33.4889C18.03 33.0959 23.4 27.7139 23.706 27.3299C24.552 26.2709 25.14 25.1849 25.56 23.9099C26.328 21.5819 26.268 19.0679 25.389 16.7699C24.969 15.6719 24.381 14.6759 23.589 13.7219C22.956 12.9539 21.705 11.8619 21.273 11.6999C21.096 11.6309 20.817 11.6039 20.652 11.6399Z" fill="#05C2B6"/>
</g>
<defs>
<clipPath id="clip0_24_188">
<rect width="36" height="36" fill="white"/>
</clipPath>
</defs>
</svg>
