<svg width="36" height="36" viewBox="0 0 36 36" fill="none" xmlns="http://www.w3.org/2000/svg">
<g clip-path="url(#clip0_24_212)">
<path d="M33.086 9.26935C33.0675 8.29739 33.0499 7.37921 33.0499 6.49092C33.0499 5.79502 32.4859 5.23083 31.7898 5.23083C26.4008 5.23083 22.2978 3.6821 18.8777 0.356795C18.3884 -0.119016 17.6099 -0.118848 17.1208 0.356795C13.7011 3.6821 9.59871 5.23083 4.21005 5.23083C3.51415 5.23083 2.94996 5.79502 2.94996 6.49092C2.94996 7.37937 2.93249 8.2979 2.91384 9.27002C2.74112 18.3151 2.50456 30.7028 17.5865 35.9305C17.7203 35.9769 17.8597 36.0001 17.9992 36.0001C18.1386 36.0001 18.2782 35.9769 18.4118 35.9305C33.4949 30.7027 33.2587 18.3146 33.086 9.26935ZM17.9993 33.4028C5.06456 28.704 5.26013 18.4107 5.43369 9.31807C5.4441 8.77236 5.45418 8.24346 5.46124 7.72498C10.5083 7.51194 14.5443 5.98252 17.9993 2.97275C21.4547 5.98252 25.4913 7.5121 30.5388 7.72498C30.5458 8.24329 30.5559 8.77186 30.5663 9.31723C30.7397 18.4102 30.9351 28.7038 17.9993 33.4028Z" fill="#05C2B6"/>
<path d="M22.3386 13.6227L16.2567 19.7042L13.6614 17.1089C13.1693 16.617 12.3714 16.617 11.8795 17.1089C11.3874 17.6012 11.3874 18.3989 11.8795 18.891L15.3657 22.3773C15.6117 22.6232 15.9343 22.7462 16.2567 22.7462C16.5791 22.7462 16.9017 22.6232 17.1477 22.3773L24.1204 15.4048C24.6126 14.9127 24.6126 14.1148 24.1205 13.6228C23.6286 13.1307 22.8307 13.1306 22.3386 13.6227Z" fill="#05C2B6"/>
</g>
<defs>
<clipPath id="clip0_24_212">
<rect width="36" height="36" fill="white"/>
</clipPath>
</defs>
</svg>
