<svg width="36" height="36" viewBox="0 0 36 36" fill="none" xmlns="http://www.w3.org/2000/svg">
<path d="M5.625 5.625V14.625H7.875V16.875H10.125V14.625H14.625V5.625H5.625ZM14.625 14.625V16.875H16.875V19.125H12.375V21.375H5.625V30.375H14.625V21.375H21.375V19.125H19.125V16.875H23.625V14.625H25.875V16.875H28.125V14.625H30.375V5.625H21.375V14.625H14.625ZM28.125 16.875V19.125H30.375V16.875H28.125ZM28.125 19.125H25.875V21.375H28.125V19.125ZM28.125 21.375V23.625H30.375V21.375H28.125ZM28.125 23.625H25.875V21.375H23.625V23.625H18V30.375H20.25V25.875H24.75V28.125H27V25.875H28.125V23.625ZM24.75 28.125H22.5V30.375H24.75V28.125ZM25.875 19.125V16.875H23.625V19.125H25.875ZM12.375 19.125V16.875H10.125V19.125H12.375ZM7.875 16.875H5.625V19.125H7.875V16.875ZM16.875 5.625V10.125H15.75V12.375H16.875V13.5H19.125V10.125H20.25V7.875H19.125V5.625H16.875ZM7.875 7.875H12.375V12.375H7.875V7.875ZM23.625 7.875H28.125V12.375H23.625V7.875ZM9 9V11.25H11.25V9H9ZM24.75 9V11.25H27V9H24.75ZM7.875 23.625H12.375V28.125H7.875V23.625ZM9 24.75V27H11.25V24.75H9ZM28.125 28.125V30.375H30.375V28.125H28.125Z" fill="#05C2B6"/>
</svg>
