<svg width="36" height="36" viewBox="0 0 36 36" fill="none" xmlns="http://www.w3.org/2000/svg">
<g clip-path="url(#clip0_24_163)">
<path d="M36 1.82721C36 0.81968 35.1803 0 34.1728 0H19.2441C18.7638 0 18.3265 0.186531 18 0.490626C17.6735 0.186531 17.2362 0 16.7559 0H1.82721C0.81968 0 0 0.81968 0 1.82721V16.7559C0 17.2362 0.186531 17.6735 0.490626 18C0.186531 18.3265 0 18.7638 0 19.2441V34.1728C0 35.1803 0.81968 36 1.82721 36H16.7559C17.2362 36 17.6735 35.8135 18 35.5094C18.3265 35.8135 18.7638 36 19.2441 36H34.1728C35.1803 36 36 35.1803 36 34.1728V19.2441C36 18.7638 35.8135 18.3265 35.5094 18C35.8135 17.6735 36 17.2362 36 16.7559V1.82721ZM19.2441 1.16631H34.1728C34.5372 1.16631 34.8337 1.46278 34.8337 1.82721V16.7559C34.8337 17.1204 34.5372 17.4168 34.1728 17.4168H29.114C28.795 17.4168 28.5356 17.1574 28.5356 16.8385V16.5489C28.5356 16.359 28.6428 16.1748 28.8296 16.0436C30.0112 15.2137 30.5921 13.8076 30.3458 12.374C30.0936 10.906 28.9493 9.71596 27.4982 9.41287C26.3845 9.18023 25.248 9.45136 24.3804 10.1564C23.5127 10.8616 23.0151 11.9067 23.0151 13.0238C23.0151 14.234 23.6111 15.3687 24.6094 16.059C24.7822 16.1785 24.8812 16.3554 24.8812 16.5445V16.8384C24.8812 17.1574 24.6217 17.4168 24.3029 17.4168H18.5832V11.697C18.5832 10.7351 17.8006 9.95248 16.8385 9.95248H16.5446C15.9754 9.95248 15.4353 10.2421 15.0998 10.7272C14.6272 11.4106 13.8511 11.8186 13.0238 11.8186C12.2594 11.8186 11.5443 11.4779 11.0615 10.8839C10.5717 10.2813 10.3917 9.51994 10.5545 8.74015C10.7573 7.76908 11.5867 6.97273 12.5715 6.80361C13.5564 6.63419 14.521 7.03197 15.0891 7.84077C15.4417 8.34275 15.9737 8.63067 16.5488 8.63067H16.8385C17.8006 8.63067 18.5832 7.84808 18.5832 6.88603V1.82721C18.5832 1.46278 18.8796 1.16631 19.2441 1.16631ZM1.16631 1.82721C1.16631 1.46278 1.46278 1.16631 1.82721 1.16631H16.7559C17.1204 1.16631 17.4168 1.46278 17.4168 1.82721V6.88603C17.4168 7.20498 17.1575 7.46436 16.8385 7.46436H16.5488C16.3589 7.46436 16.1747 7.35722 16.0436 7.17045C15.2137 5.98891 13.8079 5.40754 12.374 5.65418C10.9059 5.90626 9.71588 7.05064 9.4128 8.50175C9.18016 9.61558 9.45121 10.7519 10.1564 11.6196C10.8616 12.4873 11.9067 12.9849 13.0238 12.9849C14.234 12.9849 15.3687 12.3889 16.059 11.3906C16.1785 11.2178 16.3555 11.1188 16.5446 11.1188H16.8385C17.1575 11.1188 17.4168 11.3783 17.4168 11.6971V17.4168H11.6971C10.7351 17.4168 9.95248 18.1994 9.95248 19.1615V19.4554C9.95248 20.0246 10.2421 20.5648 10.7272 20.9002C11.4106 21.3728 11.8186 22.1489 11.8186 22.9762C11.8186 23.7406 11.4779 24.4558 10.8839 24.9385C10.2813 25.4282 9.52002 25.6084 8.74007 25.4454C7.76908 25.2427 6.97273 24.4133 6.80353 23.4285C6.63442 22.4437 7.03182 21.479 7.84069 20.9109C8.34267 20.5583 8.63059 20.0262 8.63059 19.4512V19.1616C8.63067 18.1994 7.84808 17.4168 6.88603 17.4168H1.82721C1.46278 17.4168 1.16631 17.1204 1.16631 16.7559V1.82721ZM16.7559 34.8337H1.82721C1.46278 34.8337 1.16631 34.5372 1.16631 34.1728V19.2441C1.16631 18.8796 1.46278 18.5832 1.82721 18.5832H6.88603C7.20498 18.5832 7.46436 18.8426 7.46436 19.1615V19.4511C7.46436 19.641 7.35722 19.8252 7.17038 19.9564C5.98883 20.7863 5.40785 22.1923 5.6541 23.6258C5.90633 25.094 7.05071 26.284 8.50168 26.587C8.76324 26.6416 9.02589 26.6685 9.28613 26.6685C10.1343 26.6685 10.9556 26.3832 11.6194 25.8436C12.4873 25.1385 12.9849 24.0933 12.9849 22.9762C12.9849 21.766 12.3888 20.6313 11.3905 19.941C11.2178 19.8215 11.1188 19.6446 11.1188 19.4555V19.1616C11.1188 18.8426 11.3782 18.5832 11.6971 18.5832H17.4168V24.303C17.4168 25.2649 18.1995 26.0475 19.1615 26.0475H19.4511C20.0262 26.0475 20.5583 25.7596 20.9108 25.2575C21.479 24.4487 22.4436 24.0513 23.4285 24.2205C24.4133 24.3897 25.2427 25.186 25.4454 26.1571C25.6083 26.9369 25.4282 27.6982 24.9384 28.3008C24.4557 28.8948 23.7406 29.2354 22.9762 29.2354C22.1489 29.2354 21.3728 28.8274 20.9002 28.144C20.5647 27.659 20.0246 27.3693 19.4554 27.3693H19.1615C18.1995 27.3693 17.4168 28.1519 17.4168 29.114V34.1728C17.4168 34.5372 17.1204 34.8337 16.7559 34.8337ZM34.8337 34.1728C34.8337 34.5372 34.5372 34.8337 34.1728 34.8337H19.2441C18.8796 34.8337 18.5832 34.5372 18.5832 34.1728V29.114C18.5832 28.795 18.8426 28.5356 19.1615 28.5356H19.4554C19.6445 28.5356 19.8215 28.6347 19.9409 28.8074C20.6313 29.8057 21.766 30.4017 22.9762 30.4017C24.0933 30.4017 25.1384 29.9041 25.8436 29.0364C26.5487 28.1689 26.8197 27.0325 26.5871 25.9186C26.2841 24.4676 25.0942 23.3232 23.626 23.0709C22.1923 22.824 20.7864 23.4056 19.9564 24.5871C19.8252 24.774 19.6411 24.8811 19.4511 24.8811H19.1615C18.8425 24.8811 18.5832 24.6217 18.5832 24.3028V18.5832H24.3029C25.2648 18.5832 26.0475 17.8006 26.0475 16.8385V16.5446C26.0475 15.9754 25.7579 15.4352 25.2728 15.0998C24.5894 14.6272 24.1814 13.8511 24.1814 13.0238C24.1814 12.2594 24.5221 11.5443 25.116 11.0616C25.7186 10.5717 26.4801 10.3918 27.2598 10.5545C28.2308 10.7573 29.0272 11.5867 29.1964 12.5715C29.3656 13.5562 28.9682 14.521 28.1592 15.0891C27.6573 15.4418 27.3693 15.9738 27.3693 16.5489V16.8385C27.3693 17.8006 28.152 18.5832 29.114 18.5832H34.1728C34.5372 18.5832 34.8337 18.8796 34.8337 19.2441V34.1728Z" fill="#05C2B6"/>
</g>
<defs>
<clipPath id="clip0_24_163">
<rect width="36" height="36" fill="white"/>
</clipPath>
</defs>
</svg>
