<svg width="36" height="36" viewBox="0 0 36 36" fill="none" xmlns="http://www.w3.org/2000/svg">
<g clip-path="url(#clip0_24_254)">
<path d="M2.92041 0.0404015C1.99102 0.0550957 1.16816 0.0844841 1.09469 0.102852C1.02122 0.12122 0.903673 0.172649 0.833877 0.216728C0.642857 0.334282 0.235102 0.782444 0.121224 1.00285L0.0183668 1.19387L0.0257138 8.62898L0.0367342 16.0641L0.187346 16.2992C0.396734 16.6151 0.719999 16.909 0.980816 17.0118C1.16449 17.0853 1.26 17.0963 1.6898 17.1C2.16367 17.1 2.19673 17.0963 2.40612 16.9935C2.54204 16.9273 2.72571 16.7878 2.89102 16.6224C3.19959 16.3139 3.24735 16.1926 3.30612 15.5388C3.33184 15.2743 3.35388 12.9012 3.36857 9.24612L3.39061 3.37959H18.0037H32.6204V18V32.6204H26.1514H19.6788L19.3996 32.7747C19.0469 32.9694 18.7751 33.2229 18.6318 33.4984C18.1506 34.3984 18.4702 35.3865 19.3886 35.8494L19.6898 36H26.438C30.1518 35.9963 33.5682 35.9816 34.0274 35.9669C34.8282 35.9339 34.8722 35.9302 35.0633 35.8347C35.2984 35.7208 35.6547 35.3829 35.798 35.1404C35.8788 35.0008 35.9045 34.8943 35.9376 34.538C36 33.9098 36 1.93591 35.9376 1.40326C35.8861 0.940403 35.82 0.815506 35.4343 0.448158C34.9788 0.018364 35.3755 0.0624428 31.7388 0.0330582C27.6061 -3.8147e-06 5.1098 0.00366974 2.92041 0.0404015Z" fill="#05C2B6"/>
<path d="M20.2078 7.57095C19.5465 7.65544 18.9735 8.25422 18.8853 8.94483C18.8045 9.59871 19.0506 10.1754 19.5722 10.5685C19.9286 10.8367 19.9616 10.8403 21.3355 10.8734C22.0078 10.8881 22.5661 10.9101 22.5808 10.9212C22.6176 10.9616 22.0078 11.5934 18.8559 14.771C15.8547 17.7979 15.289 18.3967 15.1273 18.731C14.8886 19.2269 15.0833 19.9689 15.5902 20.4538C16.0861 20.9314 16.7878 21.1077 17.269 20.8726C17.6033 20.711 18.1984 20.1489 21.229 17.144C24.3955 14.0032 25.0384 13.3824 25.0751 13.4191C25.0898 13.4301 25.1118 14.0105 25.1265 14.7085C25.1596 16.1779 25.1449 16.1228 25.5527 16.5636C25.7363 16.762 25.8612 16.8575 26.0706 16.9603C26.3167 17.0816 26.3829 17.0999 26.6951 17.111C27.2755 17.1367 27.7457 16.953 28.0763 16.5636C28.3335 16.2661 28.3886 16.1007 28.44 15.4652C28.4988 14.6865 28.5024 10.0065 28.44 9.20197C28.3849 8.50769 28.3224 8.33871 27.9918 8.0081C27.7163 7.73626 27.4592 7.61136 27.0698 7.56728C26.6951 7.5232 20.5457 7.52687 20.2078 7.57095Z" fill="#05C2B6"/>
<path d="M1.88449 20.9388C1.17184 20.9646 1.1351 20.9682 0.929387 21.0674C0.65755 21.2033 0.301224 21.556 0.168979 21.8278C0.0734688 22.0225 0.0661218 22.0813 0.0367341 22.7278C-0.00367409 23.5433 -0.00367409 31.8601 0.0330606 33.6674C0.0624484 35.1221 0.0330606 35.0119 0.495918 35.4748C0.925714 35.9046 0.984489 35.9266 1.85143 35.967C2.7698 36.0074 12.3355 36.0074 13.2539 35.967C14.0841 35.9266 14.1869 35.8935 14.591 35.5225C14.8812 35.258 14.9657 35.078 15.0318 34.6005C15.098 34.1156 15.1016 22.805 15.0355 22.3237C14.962 21.7948 14.929 21.7213 14.6424 21.4311C14.2494 21.038 14.0951 20.9793 13.4008 20.9388C12.7506 20.8984 2.99388 20.9021 1.88449 20.9388ZM11.6816 28.4254V32.5727L10.8294 32.5948C10.3592 32.6095 8.48939 32.6205 6.67837 32.6205H3.37959V28.7523C3.37959 26.6217 3.39061 24.7556 3.40163 24.6013C3.42735 24.3221 3.42735 24.3221 3.54122 24.3074C3.60367 24.3001 5.46245 24.289 7.6702 24.289L11.6816 24.2817V28.4254Z" fill="#05C2B6"/>
</g>
<defs>
<clipPath id="clip0_24_254">
<rect width="36" height="36" fill="white"/>
</clipPath>
</defs>
</svg>
