<svg width="36" height="36" viewBox="0 0 36 36" fill="none" xmlns="http://www.w3.org/2000/svg">
<g clip-path="url(#clip0_24_198)">
<path d="M34.875 14.625H14.625C14.0046 14.625 13.5 15.1296 13.5 15.75H8.78963C8.36438 15.75 7.97906 15.9913 7.78387 16.3783C6.50306 18.9124 3.969 19.7899 2.27475 20.0931C2.83725 19.4383 3.42675 18.4877 3.76931 17.1619C3.85763 16.8216 3.78394 16.4666 3.5685 16.1882C3.35306 15.9092 3.02906 15.75 2.67863 15.75H1.125V1.125H21.375V13.5C21.375 13.8111 21.6264 14.0625 21.9375 14.0625C22.2486 14.0625 22.5 13.8111 22.5 13.5V1.125C22.5 0.504562 21.9954 0 21.375 0H1.125C0.504562 0 0 0.504562 0 1.125V15.75C0 16.3704 0.504562 16.875 1.125 16.875L2.68087 16.8801C2.02894 19.3995 0.378 20.2747 0.311062 20.3096C0.081 20.4244 -0.041625 20.6809 0.0129375 20.9323C0.0680625 21.1832 0.28575 21.366 0.542812 21.3744C0.561375 21.3756 0.612563 21.3767 0.693563 21.3767C1.64475 21.3767 6.624 21.1663 8.79019 16.875H13.5V30.375C13.5 30.9954 14.0046 31.5 14.625 31.5L27.2019 31.4983C27.2025 31.4983 27.207 31.5011 27.2115 31.5101C27.2115 31.5107 27.2121 31.5107 27.2121 31.5112C29.3766 35.7919 34.3541 36.0017 35.3064 36.0017C35.3874 36.0017 35.4386 36.0006 35.4577 35.9994C35.7137 35.9904 35.9297 35.8093 35.9854 35.5596C36.0411 35.3098 35.9196 35.0533 35.6923 34.9363C35.6226 34.9003 33.9716 34.0251 33.3219 31.5006H34.875C35.4954 31.5006 36 30.996 36 30.3756V15.75C36 15.1296 35.4954 14.625 34.875 14.625ZM34.875 30.375H33.3214C32.9709 30.375 32.6469 30.5342 32.4315 30.8126C32.2155 31.0911 32.1418 31.446 32.2307 31.7857C32.5732 33.111 33.1628 34.0628 33.7253 34.7175C32.031 34.4149 29.4975 33.5374 28.2167 31.0033C28.0209 30.6163 27.6356 30.375 27.2104 30.375H14.625V15.75H34.875V30.375Z" fill="#05C2B6"/>
<path d="M19.1919 26.2316C19.3528 26.4566 19.6538 26.5319 19.9013 26.4076L21.8329 25.4418L25.0363 29.1796C25.2281 29.4046 25.5639 29.4423 25.8002 29.2635L27.585 27.9247L28.8135 29.4598C28.9249 29.5987 29.088 29.6707 29.2534 29.6707C29.3766 29.6707 29.5003 29.6308 29.6044 29.5475L31.3611 28.1424C31.4775 28.049 31.5523 27.9135 31.5686 27.765C31.5849 27.6165 31.5416 27.468 31.4488 27.3515L31.3672 27.2497L33.6195 24.5469C33.759 24.3787 33.7894 24.1453 33.6966 23.9484C33.6043 23.7515 33.4057 23.625 33.1875 23.625H32.0625V17.4375C32.0625 17.1264 31.8111 16.875 31.5 16.875H29.25C28.9389 16.875 28.6875 17.1264 28.6875 17.4375V23.625H27.5625C27.3442 23.625 27.1457 23.7515 27.0534 23.949C27.0248 24.0103 27.0118 24.0755 27.0062 24.1408L25.8834 24.9823L22.9652 21.5786C22.797 21.3817 22.5169 21.326 22.2868 21.4413L20.5408 22.3149L18.5664 19.5508C18.3859 19.2982 18.0343 19.2386 17.7817 19.4203L15.9503 20.7275C15.8288 20.8136 15.7472 20.9458 15.7224 21.0926C15.6977 21.2394 15.7331 21.3901 15.8198 21.5116L19.1919 26.2316ZM29.25 24.75C29.5611 24.75 29.8125 24.4985 29.8125 24.1875V18H30.9375V24.1875C30.9375 24.4985 31.1889 24.75 31.5 24.75H31.9866L30.375 26.6838L28.7634 24.75H29.25ZM17.9786 20.6617L19.9052 23.3595C20.0661 23.5845 20.367 23.6598 20.6145 23.5355L22.3976 22.644L25.3727 26.114C25.5645 26.3396 25.9003 26.3773 26.1366 26.1978L27.5946 25.1043L29.8997 27.8701L29.3406 28.3173L28.1233 26.7952C27.9332 26.5578 27.5884 26.5145 27.3465 26.6968L25.5471 28.0462L22.4004 24.3759C22.2328 24.1796 21.9527 24.1233 21.7221 24.2386L19.8281 25.1859L17.0629 21.3148L17.9786 20.6617ZM4.5 14.625H6.75C7.06106 14.625 7.3125 14.3735 7.3125 14.0625V12.8266L7.60838 12.4565L9.39319 13.7953C9.49387 13.8712 9.61256 13.9078 9.73012 13.9078C9.88931 13.9078 10.0468 13.8408 10.1576 13.7109L13.3611 9.97308L15.2927 10.9389C15.5374 11.061 15.8321 10.9901 15.9953 10.7718L19.9294 5.48995C20.0199 5.36845 20.0576 5.21601 20.0346 5.06695C20.0109 4.91733 19.9288 4.78345 19.8056 4.69626L17.9741 3.38901C17.7266 3.21183 17.3829 3.26358 17.199 3.50714L14.6649 6.85233L12.9071 5.97314C12.6776 5.85839 12.3969 5.91464 12.2287 6.11039L9.3105 9.51408L7.45256 8.12133C7.40925 8.0887 7.36031 8.07239 7.3125 8.05383V6.74995H8.4375C8.65575 6.74995 8.85431 6.62339 8.94656 6.42595C9.03937 6.22851 9.009 5.99508 8.8695 5.82745L6.057 2.45245C5.84269 2.19651 5.40675 2.19651 5.19244 2.45245L2.37994 5.82745C2.24044 5.99564 2.21006 6.22908 2.30287 6.42595C2.39569 6.62339 2.59425 6.74995 2.8125 6.74995H3.9375V14.0625C3.9375 14.3735 4.18894 14.625 4.5 14.625ZM9.05737 10.7296C9.29419 10.908 9.63 10.8708 9.82125 10.6458L12.7963 7.17576L14.5794 8.06733C14.8236 8.18939 15.1161 8.11964 15.2792 7.90364L17.7649 4.62201L18.6846 5.27789L15.3742 9.7222L13.4713 8.77101C13.2407 8.6557 12.9606 8.71251 12.7929 8.90826L9.64631 12.5786L7.84687 11.2291C7.68712 11.1093 7.48688 11.0964 7.3125 11.1622V9.42183L9.05737 10.7296ZM5.625 3.69108L7.23656 5.62495H6.75C6.43894 5.62495 6.1875 5.87639 6.1875 6.18745V13.5H5.0625V6.18745C5.0625 5.87639 4.81106 5.62495 4.5 5.62495H4.01344L5.625 3.69108Z" fill="#05C2B6"/>
<path d="M24.75 20.25H27C27.3111 20.25 27.5625 19.9986 27.5625 19.6875C27.5625 19.3764 27.3111 19.125 27 19.125H24.75C24.4389 19.125 24.1875 19.3764 24.1875 19.6875C24.1875 19.9986 24.4389 20.25 24.75 20.25ZM10.125 1.6875C9.81394 1.6875 9.5625 1.93894 9.5625 2.25V2.8125H9C8.68894 2.8125 8.4375 3.06394 8.4375 3.375C8.4375 3.68606 8.68894 3.9375 9 3.9375H9.5625V4.5C9.5625 4.81106 9.81394 5.0625 10.125 5.0625C10.4361 5.0625 10.6875 4.81106 10.6875 4.5V3.9375H11.25C11.5611 3.9375 11.8125 3.68606 11.8125 3.375C11.8125 3.06394 11.5611 2.8125 11.25 2.8125H10.6875V2.25C10.6875 1.93894 10.4361 1.6875 10.125 1.6875Z" fill="#05C2B6"/>
</g>
<defs>
<clipPath id="clip0_24_198">
<rect width="36" height="36" fill="white"/>
</clipPath>
</defs>
</svg>
