<svg width="58" height="59" viewBox="0 0 58 59" fill="none" xmlns="http://www.w3.org/2000/svg">
<path d="M27.9774 0.760765C27.2901 0.980534 24.6248 1.8089 22.0433 2.62036C16.763 4.26019 16.9641 4.24329 14.4329 3.3473C13.6451 3.07681 12.3543 2.65417 11.5832 2.4175L10.1751 1.97795L9.87338 2.38369C9.35373 3.05991 8.51558 4.75045 8.11326 5.88311C7.91211 6.49171 7.66066 7.03268 7.57685 7.0834C7.27511 7.26936 7.04043 9.04443 7.07396 10.8195C7.12425 12.5608 7.10748 12.6115 6.60459 13.3553C6.05141 14.1499 4.40864 17.3619 4.19072 18.0888C4.10691 18.3255 3.85546 19.0355 3.62078 19.6949C2.48089 22.7716 2.09535 25.7808 1.91095 33.1009C1.79361 37.2596 1.79361 37.361 2.11211 37.2427C2.27974 37.1751 2.56471 36.9553 2.73234 36.7355C3.03407 36.3467 3.03407 36.3467 3.3861 36.6848C3.68783 36.9553 3.77165 37.3103 3.88899 38.5782C4.03985 40.4209 4.25777 41.8748 4.40864 42.0269C4.49246 42.1284 4.84448 41.4184 5.09592 40.6069C5.17974 40.3364 5.34737 40.235 5.68263 40.235C6.26933 40.235 6.38667 40.3871 6.8728 41.7565C7.44274 43.3794 8.76702 45.9997 9.52136 47.031C10.2254 47.9777 10.8289 48.5863 12.0693 49.5499C13.1422 50.3951 13.2092 50.429 13.1254 49.9894C13.0919 49.7865 13.1254 49.4146 13.226 49.1441C13.511 48.4172 14.1144 48.5186 14.7347 49.4315C15.0196 49.8373 15.841 50.8009 16.5786 51.5447C17.3162 52.3055 17.9531 53.0493 18.0034 53.2183C18.1375 53.6241 19.8306 54.6891 21.4063 55.3484C23.7364 56.3459 25.7144 57.4278 26.5358 58.1547L27.3237 58.8648L29.8381 58.9324C31.3468 58.9831 32.3526 58.9493 32.3526 58.8479C32.3526 58.1547 34.8 56.4811 36.4595 56.0585C37.3144 55.8387 40.2144 54.6215 40.8514 54.2158C40.9688 54.1312 41.019 53.8946 40.9688 53.6241C40.9017 53.2353 41.0526 52.9817 41.8907 52.0688C43.2988 50.5473 43.2988 50.5473 43.8185 49.8204C44.3884 49.0765 45.0757 48.9582 45.3439 49.5668C45.4445 49.7865 45.6289 49.9725 45.7965 50.0063C46.1318 50.0739 48.1936 48.4341 48.8809 47.555C50.004 46.1012 51.2277 43.7682 51.8647 41.7903C52.2838 40.5393 52.3676 40.404 52.7531 40.404C53.0549 40.404 53.2225 40.5393 53.3566 40.9112C53.541 41.4014 53.8763 41.6719 54.1445 41.5029C54.2786 41.4184 54.5468 39.7109 54.7479 37.6484C54.815 36.837 54.9156 36.5158 55.0832 36.5158C55.2508 36.5158 55.3011 36.3805 55.2341 36.0424L55.1503 35.586L55.3179 36.0255C55.452 36.3636 55.5861 36.4651 55.8375 36.3974C56.0387 36.3298 56.2566 36.4312 56.4242 36.6172C56.6254 36.9046 56.6589 36.3298 56.5751 31.8668C56.5081 26.5247 56.2566 23.9212 55.6364 21.639C55.452 20.9459 55.2341 20.1344 55.167 19.8639C54.7479 18.2748 53.0549 14.7078 51.915 13.0341C51.4121 12.3072 51.4121 12.2903 51.5127 10.549C51.563 9.60231 51.5462 8.60489 51.4624 8.3344C50.6242 5.62953 49.8867 3.93899 49.0653 2.75561C48.4786 1.92724 48.7133 1.91034 45.6792 2.90776C43.2653 3.70231 41.9913 4.04042 41.3375 4.05733C41.0693 4.05733 38.5549 3.33039 35.7219 2.4344C32.9057 1.53841 30.2907 0.710049 29.9052 0.591709C29.3185 0.422657 29.0838 0.43956 27.9774 0.760765ZM31.33 3.53326C32.4867 3.90518 33.6433 4.26019 33.9115 4.32781C34.163 4.37853 34.3641 4.47996 34.3641 4.54758C34.3641 4.5983 33.241 4.78426 31.8664 4.95332C29.5196 5.24071 29.2179 5.24071 27.1225 4.98713C24.541 4.68283 23.6526 4.53068 23.8873 4.47996C24.4572 4.32781 25.6138 3.9728 27.156 3.48254C28.1283 3.16134 28.9832 2.89085 29.067 2.89085C29.1508 2.87394 30.1734 3.17824 31.33 3.53326ZM12.8237 4.17566C14.3826 4.71664 14.5838 4.81807 14.1144 4.86879C13.8127 4.9026 13.1757 4.83498 12.7063 4.73354C12.237 4.63211 11.8179 4.5983 11.7676 4.64902C11.6503 4.75045 12.4716 5.05474 13.4774 5.27452C14.6676 5.5281 14.1144 5.74787 12.237 5.76477C11.4156 5.78168 10.7283 5.8493 10.7283 5.93383C10.7283 6.01836 10.8959 6.08598 11.1138 6.08598C11.315 6.08598 11.6 6.1536 11.7173 6.23813C11.9185 6.37337 11.8849 6.42409 11.5497 6.49171C11.3318 6.54243 10.8456 6.64386 10.4768 6.72839L9.80633 6.89744L10.7283 6.91434L11.6503 6.94815L10.8121 7.37079C10.3595 7.59056 9.85662 7.89486 9.72251 8.04701C9.50459 8.28369 9.52136 8.30059 9.97396 8.18225C10.4601 8.08082 10.4433 8.11463 9.55488 9.02753C8.66644 9.95732 8.63292 9.97423 8.58263 9.55159C8.415 8.26678 10.1081 3.55016 10.7115 3.55016C10.8624 3.55016 11.8011 3.83755 12.8237 4.17566ZM48.8474 4.76735C49.6688 6.49171 50.4734 9.66993 50.1381 9.8728C50.004 9.95732 49.7861 9.73755 48.7803 8.55417L48.3612 8.06392L48.8474 8.18225C49.6185 8.36821 49.1156 7.89486 48.0595 7.42151L47.1878 7.01578L48.1098 6.93125L49.0318 6.84672L48.2104 6.71148C47.0705 6.50861 46.8526 6.40718 47.1375 6.23813C47.2549 6.1536 47.5231 6.08598 47.741 6.08598C47.9589 6.08598 48.093 6.01836 48.0427 5.93383C47.9925 5.86621 47.2549 5.78168 46.4167 5.76477C44.6399 5.74787 43.9526 5.51119 45.1092 5.32523C45.9809 5.17308 47.104 4.75045 47.104 4.56449C47.104 4.49687 46.7352 4.54758 46.2826 4.68283C45.8133 4.81807 45.126 4.9026 44.7237 4.86879C44.0364 4.81807 44.0699 4.80117 45.763 4.19257C46.7352 3.85446 47.6907 3.56707 47.8919 3.56707C48.1936 3.55016 48.378 3.78684 48.8474 4.76735ZM26.2341 6.37337C28.7653 6.74529 29.9219 6.74529 32.4029 6.37337C34.7162 6.03526 39.5607 5.96764 41.2873 6.23813C44.4722 6.7622 47.2046 8.65561 49.7861 12.155C50.5237 13.1355 51.1271 14.0146 51.1271 14.0823C51.1271 14.1668 50.4734 13.6089 49.6855 12.8651C47.9589 11.2421 47.4225 11.0393 48.8809 12.5439C52.7867 16.6181 53.9768 18.9848 54.9659 24.5805C55.4688 27.3868 55.9884 33.98 55.7034 33.98C55.3849 33.98 54.4294 30.396 54.2283 28.3335C54.1445 27.5221 54.0607 27.2516 53.9601 27.4375C53.8595 27.5897 53.8763 28.3166 53.9768 29.1957C54.2451 31.5287 54.2115 31.4949 53.474 28.5702C53.2728 27.7757 52.9711 26.0344 52.7867 24.6989C52.619 23.3464 52.4179 22.2138 52.3676 22.1631C52.1664 21.994 52.4514 25.7301 52.7196 27.1333C53.3231 30.1762 53.4907 31.6808 53.5913 34.5886C53.6751 37.4287 53.5913 39.0516 53.3566 38.8149C53.0716 38.5275 52.3005 36.2284 52.0323 34.8252C51.7138 33.2192 51.7138 33.2192 51.6636 34.1152C51.63 34.6055 51.7306 35.4676 51.8815 36.0424L52.1329 37.0737L51.3618 39.5418C50.6075 41.9593 49.7358 44.1232 49.5346 44.1232C49.4844 44.1232 49.4676 44.0725 49.5011 44.0049C49.7023 43.6161 50.4734 40.8943 50.4231 40.7252C50.3896 40.6238 50.0208 41.4014 49.6185 42.4496C48.7468 44.7318 47.5399 47.2507 47.2549 47.4367C47.0034 47.5888 47.0537 47.4536 47.8416 45.3911C48.1601 44.5459 48.4618 43.4808 48.5121 43.0244C48.6127 42.2467 48.5792 42.2974 48.026 43.7851C47.6907 44.6642 47.3555 45.4588 47.2549 45.5602C47.1711 45.6447 47.1375 44.4444 47.1878 42.3481C47.2381 40.4886 47.2381 39.0347 47.1878 39.1361C47.1543 39.2206 46.8526 40.1843 46.5341 41.2493C45.9977 43.0413 45.0925 45.3066 45.0925 44.8671C45.0925 44.7487 45.2936 43.988 45.5283 43.1765C45.763 42.3481 46.0312 41.2493 46.115 40.7421C46.2156 40.235 46.3162 39.6771 46.3664 39.508C46.4167 39.3559 46.4 39.2206 46.3162 39.2206C46.2491 39.2206 46.0479 39.8123 45.8803 40.5224C45.4445 42.3312 44.0867 46.3209 43.3659 47.8931C42.5445 49.702 40.5329 51.7307 38.6722 52.6605C37.9682 53.0155 37.3312 53.2522 37.2641 53.1845C37.1971 53.1169 37.4318 51.6292 37.7838 49.8542C38.1358 48.0791 38.3873 46.6083 38.3537 46.5576C38.3034 46.5238 38.052 46.9971 37.8005 47.6057C37.5491 48.2143 36.8451 49.4653 36.2416 50.3613C35.0346 52.204 35.0682 52.1533 34.9508 52.0519C34.9173 52.0012 35.0849 51.4433 35.3531 50.784C35.6214 50.1416 35.8896 49.347 35.9399 49.0258L36.0404 48.4341L35.7555 49.0258C35.6046 49.347 34.9676 50.6825 34.3641 52.0012C33.3416 54.1481 32.956 54.7736 32.7716 54.5708C32.7381 54.537 33.0063 53.6748 33.3584 52.6605C34.1127 50.5473 34.0792 50.6656 33.878 50.8009C33.6433 50.9361 32.9225 52.5928 32.4029 54.1481C31.9838 55.4499 31.615 56.1261 31.4474 55.9401C31.3971 55.9063 31.5479 55.2977 31.7826 54.6215C32.4699 52.5759 32.1514 52.6943 31.2965 54.7906C30.5086 56.7009 29.8549 57.6476 29.3185 57.6476C28.8323 57.6476 28.2121 56.7178 27.4913 54.9427C27.1057 53.9622 26.7202 53.0493 26.6364 52.9141C26.4017 52.5421 26.6196 53.641 27.0052 54.7736C27.4075 55.9401 27.4075 56.0754 26.9884 55.7034C26.804 55.5344 26.6531 55.2808 26.6531 55.1456C26.6531 54.8413 25.1612 51.0375 24.9601 50.8178C24.6583 50.4966 24.8092 51.1559 25.3959 52.7281C26.0497 54.5032 26.1 54.7398 25.7144 54.4186C25.4127 54.182 23.6861 50.7502 23.2167 49.4653C23.0323 49.0089 22.8647 48.7215 22.8312 48.8398C22.7641 49.0596 23.4011 51.1559 23.6358 51.4771C23.7029 51.5616 23.8034 51.7983 23.8705 51.9673C23.9711 52.2547 23.9375 52.2547 23.7029 52.0519C23.2167 51.6461 21.8086 49.4146 21.0878 47.9269C20.719 47.1324 20.3838 46.5069 20.3503 46.5238C20.3335 46.5576 20.6017 48.0115 20.9537 49.7865C21.289 51.5447 21.5237 53.0662 21.4566 53.1338C21.2555 53.3705 19.8641 52.6605 18.5734 51.7138C17.1988 50.6825 16.0925 49.3639 15.3381 47.8593C14.7849 46.7436 13.0416 41.5367 12.8237 40.3533C12.7566 40.0152 12.6393 39.7616 12.5722 39.8123C12.4046 39.9138 12.7901 41.7396 13.3433 43.5992C13.578 44.3599 13.7289 45.0361 13.6953 45.0868C13.5612 45.2052 12.6225 42.7539 12.0693 40.8267C11.7676 39.7954 11.5162 38.9502 11.4994 38.9333C11.4826 38.9163 11.4994 40.4716 11.5329 42.3989C11.5664 44.3261 11.5497 45.8476 11.4994 45.7969C11.4491 45.7461 11.1306 44.9009 10.7953 43.9373C10.4601 42.9737 10.1584 42.1453 10.1081 42.0946C9.73928 41.7396 10.6948 45.2221 11.2647 46.3716C11.4491 46.7267 11.5664 47.1493 11.5162 47.3014C11.4491 47.6734 10.1081 45.0361 9.30344 42.9229C8.34795 40.3871 8.31442 40.3364 8.26413 40.5055C8.21384 40.6576 8.64968 42.2805 9.13581 43.8696C9.1861 44.0556 9.05199 43.8527 8.81731 43.4132C8.11326 42.1115 6.82251 38.0542 6.82251 37.1075C6.80575 36.6341 6.90633 35.6029 7.02367 34.7745C7.3254 32.6275 7.17454 32.6613 6.67165 34.859C6.23581 36.8032 5.53176 38.8825 5.33061 38.8825C5.11269 38.8825 4.97858 36.5496 5.09592 34.3181C5.1965 32.0696 5.34737 30.937 6.00113 27.0487C6.35315 25.0201 6.63812 21.0473 6.36991 22.1461C6.2861 22.4674 6.08494 23.6845 5.93407 24.851C5.68263 26.812 5.11269 29.4831 4.71037 30.6834L4.52598 31.1906L4.59303 30.6665C4.84448 28.9421 4.89477 27.5052 4.72714 27.6235C4.6098 27.6911 4.52598 27.9785 4.52598 28.249C4.52598 29.5 3.33581 33.98 3.00055 33.98C2.89997 33.98 2.86644 33.7433 2.91673 33.4221C2.96702 33.1347 3.05084 31.9682 3.10113 30.8524C3.36933 25.5103 4.19072 21.3178 5.54852 18.2748C6.06818 17.1083 7.86182 14.6232 9.16933 13.2708C9.60517 12.7974 10.1584 12.2057 10.393 11.9353C11.2312 10.9547 10.1584 11.7662 8.81731 13.1017C8.11326 13.8118 7.54332 14.3358 7.54332 14.2851C7.54332 13.947 9.72251 11.0562 10.7618 10.0249C12.9075 7.89486 14.1312 7.1003 16.2266 6.52552C18.3722 5.93383 22.6636 5.86621 26.2341 6.37337Z" fill="#05C2B6"/>
<path d="M24.3734 7.01579C24.5578 7.15103 24.7757 7.26937 24.8595 7.26937C24.9266 7.26937 25.3289 7.50604 25.7479 7.77653C26.5358 8.33441 27.441 9.12897 27.2734 9.12897C27.2063 9.12897 26.4688 8.75705 25.6138 8.2837C24.7589 7.82725 23.5688 7.32008 22.9653 7.16793C21.7081 6.84673 20.015 6.91435 19.1098 7.33699L18.5231 7.60748L19.4451 7.52295L20.367 7.42152L19.1098 7.91177C18.4225 8.18226 17.5844 8.53728 17.2659 8.70633C16.763 8.97682 16.7294 9.02753 16.9977 9.12897C17.2659 9.21349 17.1653 9.33183 16.3774 9.78828C15.4387 10.3293 14.5838 11.1745 14.5838 11.5464C14.5838 11.6817 14.6341 11.6817 14.7179 11.5803C14.7849 11.4788 15.0196 11.2591 15.2375 11.0731C15.4555 10.8871 15.2878 11.1914 14.8688 11.7493C13.8797 13.0341 13.863 13.1863 14.8017 13.0003C15.1872 12.9327 15.5728 12.8651 15.6398 12.8482C15.7237 12.8482 15.4722 13.2032 15.0867 13.6427C13.1757 15.8404 12.0526 18.1396 11.9688 20.033C11.9185 21.1487 11.9185 21.1656 12.0526 20.3711C12.2034 19.4582 12.7231 18.0212 13.2427 17.0745C13.6786 16.28 13.6618 16.4828 13.1589 17.8015C12.8907 18.5453 12.6393 19.8132 12.4214 21.6728C11.9688 25.4427 11.8849 26.3725 11.9688 26.3725C12.0023 26.3725 12.3375 25.8654 12.6896 25.2229L13.3266 24.0903L13.4271 27.2178C13.578 31.7823 14.1815 34.8252 15.3549 36.8032L15.8242 37.6146L15.9416 37.1075C16.0086 36.8201 16.0589 36.1777 16.0757 35.6536C16.0757 35.1295 16.1427 34.6562 16.193 34.6055C16.2601 34.5379 16.5283 34.9267 16.8133 35.4676C18.3219 38.3754 20.6185 41.9762 21.7416 43.1934L22.3618 43.8697L22.4792 43.3625C22.5462 43.0751 22.5965 42.5679 22.6133 42.2298C22.6468 41.2662 22.915 41.3169 23.1329 42.2975C23.3508 43.2949 24.1052 45.053 24.1219 44.6135C24.1387 44.4613 23.9878 43.8528 23.8202 43.2611C23.6526 42.6694 23.4514 41.9424 23.4011 41.6719L23.3005 41.1648L23.6023 41.5705C23.7531 41.7903 24.0381 42.2467 24.2225 42.5848C26.7202 47.1662 29.2682 51.5616 29.4023 51.5109C29.4861 51.4771 30.8439 49.1442 32.4196 46.3379C33.9953 43.5146 35.3029 41.2831 35.3364 41.3846C35.3699 41.486 35.2023 42.3144 34.9508 43.2103C34.7161 44.1063 34.5485 44.8671 34.582 44.9009C34.6826 45.0023 35.2861 43.447 35.6716 42.0946L35.9734 40.9957L36.0907 42.2636C36.1578 42.9568 36.2751 43.5823 36.3589 43.6668C36.7277 44.0387 40.5832 38.3585 42.0081 35.2986C42.1757 34.9436 42.3601 34.6562 42.4271 34.6562C42.578 34.6562 42.7456 35.7381 42.7456 36.7187C42.7456 37.1751 42.7959 37.5301 42.8797 37.5301C42.9468 37.5301 43.1982 37.1244 43.4664 36.6341C44.6734 34.3181 45.2601 31.2075 45.2601 26.998C45.2601 23.8029 45.2433 23.8198 46.2156 25.4765L46.7855 26.457L46.6849 25.1046C46.467 22.2307 46.0479 19.306 45.6624 18.1058C45.4445 17.4126 45.2768 16.8209 45.3104 16.7871C45.4445 16.6688 46.4167 19.0525 46.5341 19.7287C46.6011 20.1344 46.7185 20.4556 46.819 20.4556C47.037 20.4556 46.8526 19.3229 46.4335 18.1396C46.0144 16.9224 44.7907 14.9444 43.7179 13.778C42.8462 12.8144 42.8797 12.7467 44.0029 13.0172C44.3716 13.1017 44.6901 13.1356 44.7237 13.1017C44.8075 13.0172 44.1537 12.0536 43.6173 11.445C43.1144 10.904 43.1982 10.8364 43.7514 11.3267C44.4219 11.9184 44.3549 11.5295 43.6508 10.8026C43.2988 10.4307 42.6953 9.95733 42.3266 9.77137C41.4716 9.33183 41.4549 9.31493 41.7231 9.12897C41.9913 8.95991 40.8682 8.33441 39.4433 7.87796C38.9572 7.70891 38.5549 7.53986 38.5549 7.48914C38.5549 7.43842 38.9572 7.45533 39.4433 7.50604L40.315 7.60748L39.6445 7.33699C39.2757 7.20175 38.4375 7.03269 37.8005 6.98198C36.0907 6.84673 34.6826 7.32008 32.2185 8.82467C31.9167 9.01063 31.6318 9.12897 31.5815 9.07825C31.4474 8.94301 32.6543 7.96249 33.6433 7.40461C34.8 6.7453 34.5318 6.55934 33.3081 7.16793C32.4364 7.59057 31.3635 8.52037 30.8774 9.24731C30.7433 9.46708 30.5757 9.63613 30.5086 9.63613C30.4416 9.63613 30.1901 9.17968 29.9387 8.6218C29.6872 8.06392 29.4358 7.60748 29.3687 7.62438C29.3017 7.62438 29.0335 8.06392 28.7653 8.6218L28.2959 9.60232L27.3237 8.6049C26.7705 8.03011 25.9826 7.43842 25.463 7.18484C24.4404 6.71149 23.8537 6.61005 24.3734 7.01579ZM23.2167 10.8871C23.6861 11.1069 24.4572 11.5972 24.9433 11.986C25.4462 12.3917 25.882 12.6791 25.9156 12.6284C25.9659 12.5946 25.6306 12.1889 25.1948 11.7493C24.5242 11.0731 24.4572 10.9717 24.8092 11.0731C25.0439 11.1238 25.3959 11.3943 25.6138 11.631C25.8318 11.8846 26.3849 12.527 26.8375 13.051C27.7427 14.1161 28.5138 14.674 28.1786 14.0485C28.078 13.8625 27.9271 13.6596 27.8266 13.6089C27.5751 13.4568 26.9549 12.5101 27.1057 12.5101C27.1896 12.5101 27.726 12.9665 28.3127 13.5244L29.3687 14.5556L30.5422 13.4399C31.7156 12.3072 32.3526 12.0367 31.3971 13.0679C31.1121 13.3553 30.7936 13.7949 30.6763 14.0315L30.4583 14.4542L30.8439 14.1161C31.3468 13.6765 32.3023 12.6284 32.8387 11.9184C33.2242 11.4281 33.8277 10.9886 34.1462 10.9886C34.1965 10.9886 33.9283 11.3267 33.5427 11.7493C33.174 12.155 32.8555 12.5439 32.8555 12.5946C32.8555 12.6453 33.3248 12.3241 33.9115 11.9015C35.2526 10.8871 36.1242 10.4814 36.9624 10.4983L37.6329 10.5152L37.0462 10.7181C35.8057 11.1238 35.856 11.2421 37.2306 11.1745C38.689 11.1238 39.7953 11.2591 39.6445 11.4957C39.5942 11.5803 39.3427 11.5634 39.041 11.4619C38.0688 11.1238 38.3872 11.445 39.5942 12.0367C40.7844 12.6284 41.9075 13.5751 41.6896 13.7949C41.6225 13.8625 41.4884 13.8287 41.3543 13.7272C41.0526 13.4737 40.2312 13.1694 40.2312 13.3215C40.2312 13.3891 40.6167 13.6934 41.0693 14.0146C41.5387 14.3358 41.9075 14.674 41.9075 14.7585C41.9075 15.1473 41.5052 16.2293 41.3543 16.2293C41.2705 16.2293 40.9017 15.9588 40.5497 15.6376C39.3092 14.5049 37.1635 13.7442 36.426 14.1837C36.1745 14.3358 36.2081 14.3527 36.6774 14.3697C37.2474 14.3697 39.0075 14.9275 39.2589 15.1811C39.3427 15.2656 38.8734 15.2995 38.1693 15.2487C37.1468 15.1811 36.8283 15.2318 36.2416 15.5361C35.856 15.739 35.437 16.0433 35.3364 16.2293C35.0346 16.7026 34.7329 16.6519 34.8335 16.1447C34.867 15.9081 34.8335 15.7221 34.7664 15.7221C34.6826 15.7221 34.3306 16.6181 33.9786 17.7L33.3583 19.6949L33.8445 20.1344C34.4982 20.743 35.9398 21.2671 37.3144 21.4023C38.4878 21.5207 38.7393 21.284 37.6832 21.0473L37.13 20.929L37.767 20.7768C38.6555 20.574 39.6948 19.9992 39.8959 19.6103C40.1306 19.1877 39.9797 19.1877 39.4433 19.6103C38.6219 20.2697 38.8566 19.7963 39.9965 18.5284C40.6335 17.8184 41.1699 17.2436 41.2034 17.2436C41.237 17.2436 41.2034 17.3957 41.1531 17.5986C41.0693 17.8353 41.1867 18.1565 41.5052 18.6129C41.9075 19.2046 41.9745 19.5258 42.1086 21.1656C42.1924 22.1969 42.226 23.076 42.1757 23.1098C42.1422 23.1436 42.0081 22.6364 41.8907 21.9771C41.7734 21.3178 41.6057 20.743 41.5219 20.6754C41.3543 20.574 41.4884 22.2138 41.7566 23.9043C41.941 24.9187 41.8237 26.1189 41.5555 26.3049C41.4716 26.3556 41.4046 26.2711 41.4046 26.1358C41.4046 25.6794 41.1699 25.8315 40.5664 26.7106C40.2479 27.1671 39.9294 27.5559 39.8624 27.5559C39.7953 27.5559 39.9294 27.1333 40.1641 26.6261C40.667 25.4427 40.667 25.3075 40.1306 25.9499L39.7115 26.457L39.8289 25.7977C40.0133 24.7158 39.6277 25.2229 39.2086 26.6261C38.9907 27.3192 38.7728 27.894 38.7225 27.894C38.6722 27.894 38.5214 27.4545 38.404 26.9135C38.1861 25.8992 37.7335 24.8848 37.7167 25.3751C37.7167 25.5272 37.8341 26.0175 37.9682 26.474C38.2699 27.4545 38.2699 27.5559 38.052 27.5559C37.9682 27.5559 37.8844 27.4545 37.8844 27.3192C37.8844 26.9811 36.3757 24.7665 35.4705 23.7522L34.6994 22.9069L35.4537 24.3946C35.8728 25.206 36.2081 26.0006 36.2081 26.1697C36.2081 26.3218 36.0572 26.1358 35.8896 25.7639C35.4537 24.8172 35.152 24.6651 35.4872 25.5611C35.9398 26.7952 35.8225 28.4181 35.1855 30.1593C34.4647 32.0697 34.23 32.2556 33.1069 31.7146C32.5034 31.4272 32.1179 31.0722 31.6988 30.4467C31.3803 29.9734 31.1624 29.5676 31.1959 29.5338C32.9393 28.3336 34.6156 26.6599 34.4312 26.3218C33.7607 25.1722 32.889 24.0058 32.5202 23.7691C31.9335 23.431 31.6653 23.431 31.2462 23.7522C30.9445 24.0058 30.9445 24.0058 31.3635 23.9043C32.1682 23.7353 32.0341 24.1241 31.1289 24.5805L30.2572 25.0201L29.8884 24.5974C29.419 24.0734 29.2682 24.0734 28.8826 24.6144L28.5641 25.0539L27.6254 24.5805C26.6699 24.1072 26.4855 23.7184 27.3069 23.9043C27.726 24.0058 27.726 24.0058 27.4075 23.7522C27.2063 23.5831 26.9046 23.5155 26.6531 23.5831C26.1335 23.7015 25.1948 24.7158 24.6416 25.7639L24.2225 26.5416L25.3121 27.6404C25.9156 28.2659 26.6531 28.9083 26.9549 29.0943C27.2398 29.2972 27.4913 29.5169 27.4913 29.6184C27.4913 29.7029 27.2734 30.1086 26.9884 30.5144C26.4185 31.3427 25.5133 31.9513 24.826 31.9513C24.4404 31.9513 24.3063 31.8161 23.9878 31.1737C23.1161 29.4324 22.6803 26.8966 23.1161 26.0682C23.1832 25.9161 23.3005 25.5442 23.3676 25.2737C23.4682 24.8003 23.4514 24.8003 23.0491 25.4427C22.3786 26.5247 22.563 25.7301 23.3173 24.3608C23.6861 23.6846 23.9543 23.076 23.904 23.0421C23.8202 22.9407 22.1774 25.0201 21.5404 26.0344C21.2722 26.457 20.9537 27.0656 20.8364 27.3868L20.6017 27.9785L20.6855 27.2178C20.7358 26.7952 20.8029 26.1527 20.8699 25.7808L20.9705 25.1046L20.652 25.8654C20.4676 26.288 20.2664 26.9473 20.1994 27.3361C20.082 28.0631 19.7803 28.3505 19.7803 27.7419C19.7803 27.3192 19.1433 25.2229 18.9757 25.1215C18.9086 25.0877 18.8751 25.3244 18.9086 25.6625L18.9757 26.288L18.5398 25.8654L18.0872 25.4427L18.2549 25.9161C18.3555 26.1697 18.5566 26.6092 18.7075 26.8966C19.1433 27.7419 18.8583 27.6404 18.1711 26.6768C17.7017 26.0513 17.5005 25.8823 17.467 26.0851C17.3664 26.5585 17.1653 26.4063 16.9474 25.7132C16.8133 25.2399 16.7965 24.8341 16.9306 24.2762C17.1653 23.2112 17.3161 20.4387 17.115 20.8783C17.0312 21.0642 16.9474 21.4361 16.9474 21.7235C16.9306 21.994 16.8468 22.349 16.7462 22.4843C16.6121 22.6702 16.5953 22.2814 16.6456 21.0811C16.7294 19.6611 16.7965 19.3229 17.1653 18.7482C17.4 18.3932 17.6011 17.886 17.6011 17.6324V17.159L18.0537 17.7507C18.3052 18.0719 18.8416 18.6974 19.2607 19.137C20.015 19.9823 19.9982 20.2189 19.2104 19.5934C18.6404 19.137 18.456 19.2891 18.9757 19.7794C19.4953 20.2866 20.5849 20.7768 21.2052 20.7937C21.5907 20.7937 21.6578 20.8444 21.4566 20.9628C21.3225 21.0473 21.0375 21.1318 20.8364 21.1318C20.6352 21.1318 20.4173 21.2164 20.3503 21.3347C20.1659 21.639 22.4456 21.3685 23.5185 20.9459C24.0381 20.743 24.6583 20.3711 24.893 20.1175L25.3624 19.6272L24.6751 17.5479C24.1219 15.8573 24.0046 15.5868 23.9878 16.094C23.9711 16.8548 23.8872 16.8886 23.4346 16.3138C22.6971 15.3502 20.7693 14.9106 19.5121 15.384C19.1266 15.5361 19.093 15.5361 19.2607 15.3164C19.5289 14.9952 21.356 14.3697 22.0266 14.3697C22.4792 14.3527 22.5127 14.3358 22.2277 14.1837C21.5237 13.7611 19.5456 14.4542 18.2381 15.5699C17.8023 15.925 17.4 16.2293 17.3161 16.2293C17.2323 16.2293 17.0815 15.9081 16.9641 15.5023C16.7797 14.8261 16.7965 14.7754 17.2323 14.3697C17.4838 14.133 17.8693 13.8287 18.104 13.6765C18.741 13.2539 18.4225 13.1525 17.7017 13.5413C17.3497 13.7272 17.0312 13.8456 16.9977 13.8118C16.7797 13.592 17.9531 12.5946 19.0595 12.0705C20.2497 11.4788 20.652 11.1238 19.6965 11.4957C19.4451 11.5972 19.1936 11.631 19.1433 11.5803C18.8919 11.3436 19.4618 11.2421 21.1214 11.2421C22.982 11.2421 23.0826 11.1576 21.7081 10.7181L21.0375 10.4983H21.7081C22.0768 10.4814 22.7474 10.6674 23.2167 10.8871ZM23.8872 17.8184C25.1277 19.137 25.1109 19.3568 23.7699 19.2046C23.2 19.1539 22.4121 18.951 22.0098 18.7482C21.3393 18.427 20.1156 17.2098 20.1156 16.8548C20.1156 16.7702 20.7358 16.7195 21.5404 16.7533L22.9653 16.8209L23.8872 17.8184ZM38.5549 16.9055C38.5549 17.2267 37.3144 18.4608 36.6439 18.7989C35.7555 19.2553 34.0289 19.4244 34.0289 19.0525C34.0289 18.596 35.3364 17.176 36.0237 16.8717C36.4427 16.6857 38.5549 16.7195 38.5549 16.9055ZM31.1624 34.0307L32.5705 34.5717L32.956 35.7381C33.174 36.3805 33.3751 36.9384 33.4086 36.9722C33.4422 37.006 33.7104 36.6341 34.0121 36.1608C34.3977 35.5353 34.5988 35.3324 34.7329 35.4676C34.867 35.6029 34.7664 35.8396 34.3977 36.3129C33.5595 37.3611 33.3583 37.4963 33.0901 37.1244C32.8722 36.8201 32.8219 36.837 32.1514 37.4625C31.3133 38.2401 29.9722 38.9333 29.352 38.9333C28.715 38.9333 27.441 38.274 26.5861 37.5132C26.1838 37.1582 25.815 36.8539 25.7647 36.8539C25.7144 36.8539 25.6474 37.006 25.5971 37.2089C25.5133 37.5301 25.4294 37.4794 24.7422 36.7525C23.9711 35.9241 23.837 35.6029 24.1387 35.4169C24.2225 35.3662 24.4907 35.7043 24.7254 36.1777C24.9601 36.651 25.2283 36.9891 25.2953 36.9384C25.3792 36.9046 25.5803 36.3974 25.7479 35.8396C25.9156 35.2648 26.1335 34.7407 26.2341 34.6562C26.5693 34.3688 28.9161 33.5066 29.3352 33.5066C29.5699 33.5066 30.3913 33.7433 31.1624 34.0307ZM25.4797 35.1126C25.4797 35.1972 25.3959 35.3662 25.3121 35.5015C25.1612 35.7212 25.1277 35.7212 24.9768 35.5015C24.7254 35.1295 24.7757 34.9943 25.1445 34.9943C25.3289 34.9943 25.4797 35.045 25.4797 35.1126ZM33.8612 35.1972C33.8612 35.5184 33.5763 35.9072 33.4925 35.7381C33.2075 35.2141 33.2242 34.9943 33.526 34.9943C33.7104 34.9943 33.8612 35.0957 33.8612 35.1972Z" fill="#05C2B6"/>
<path d="M24.7422 46.6928C24.9266 47.3014 25.6306 48.6539 25.815 48.7722C26.1167 48.9582 25.9826 48.4172 25.463 47.369C24.9601 46.3547 24.4907 45.9321 24.7422 46.6928Z" fill="#05C2B6"/>
<path d="M33.7439 46.5069C33.2578 47.1324 32.5873 48.8568 32.8387 48.8568C33.0231 48.8568 34.0624 46.6759 33.9954 46.4562C33.9618 46.3547 33.8613 46.3717 33.7439 46.5069Z" fill="#05C2B6"/>
</svg>
