<svg width="93" height="96" viewBox="0 0 93 96" fill="none" xmlns="http://www.w3.org/2000/svg">
<path d="M44.8608 1.2378C43.7587 1.5954 39.485 2.94324 35.3457 4.26359C26.879 6.93179 27.2015 6.90428 23.1428 5.4464C21.8795 5.00629 19.8099 4.3186 18.5735 3.9335L16.3157 3.21832L15.8319 3.87849C14.9986 4.97878 13.6547 7.72949 13.0096 9.57247C12.6871 10.5627 12.2839 11.443 12.1495 11.5255C11.6657 11.8281 11.2894 14.7163 11.3431 17.6046C11.4238 20.4378 11.3969 20.5203 10.5905 21.7306C9.70353 23.0235 7.06942 28.2498 6.72 29.4326C6.58561 29.8177 6.18243 30.973 5.80613 32.0458C3.97838 37.0521 3.36017 41.9484 3.06451 53.859C2.87636 60.6258 2.87636 60.7908 3.38705 60.5983C3.65584 60.4882 4.11278 60.1306 4.38156 59.773C4.86538 59.1404 4.86538 59.1404 5.42983 59.6905C5.91364 60.1306 6.04804 60.7083 6.23619 62.7713C6.47809 65.7696 6.82752 68.1352 7.06942 68.3828C7.20382 68.5478 7.76827 67.3925 8.17145 66.0722C8.30584 65.6321 8.57463 65.467 9.1122 65.467C10.0529 65.467 10.2411 65.7146 11.0206 67.9427C11.9345 70.5834 14.0579 74.847 15.2674 76.5249C16.3963 78.0653 17.3639 79.0556 19.3529 80.6235C21.0732 81.9988 21.1807 82.0538 21.0463 81.3387C20.9925 81.0086 21.0463 80.4034 21.2076 79.9633C21.6645 78.7805 22.6321 78.9455 23.6266 80.4309C24.0836 81.0911 25.4006 82.659 26.5833 83.8693C27.766 85.1071 28.7873 86.3175 28.868 86.5925C29.083 87.2527 31.7977 88.9856 34.3243 90.0584C38.0605 91.6813 41.2321 93.4418 42.5492 94.6246L43.8125 95.7799L47.8443 95.8899C50.2634 95.9725 51.8761 95.9175 51.8761 95.7524C51.8761 94.6246 55.8003 91.9014 58.4613 91.2137C59.8321 90.8561 64.4821 88.8756 65.5035 88.2154C65.6917 88.0779 65.7723 87.6928 65.6917 87.2527C65.5842 86.62 65.8261 86.2074 67.17 84.722C69.4278 82.2464 69.4278 82.2464 70.261 81.0636C71.1749 79.8533 72.2769 79.6607 72.707 80.651C72.8683 81.0086 73.1639 81.3111 73.4327 81.3662C73.9703 81.4762 77.2764 78.808 78.3784 77.3776C80.1792 75.012 82.1414 71.216 83.1628 67.9977C83.8347 65.9622 83.9691 65.7421 84.5873 65.7421C85.0712 65.7421 85.3399 65.9622 85.555 66.5673C85.8506 67.365 86.3882 67.8051 86.8183 67.5301C87.0333 67.3925 87.4633 64.6143 87.7859 61.2584C87.8934 59.9381 88.0547 59.4154 88.3235 59.4154C88.5923 59.4154 88.6729 59.1954 88.5654 58.6452L88.431 57.9026L88.6998 58.6177C88.9148 59.1679 89.1298 59.3329 89.533 59.2229C89.8555 59.1129 90.205 59.2779 90.4738 59.5805C90.7963 60.0481 90.8501 59.1129 90.7157 51.851C90.6081 43.1587 90.205 38.9226 89.2105 35.2091C88.9148 34.0814 88.5654 32.761 88.4579 32.3209C87.7859 29.7352 85.0712 23.9312 83.2434 21.208C82.437 20.0252 82.437 19.9977 82.5983 17.1645C82.679 15.624 82.6521 14.0011 82.5177 13.561C81.1738 9.15987 79.9911 6.40915 78.674 4.48365C77.7333 3.1358 78.1096 3.10829 73.2446 4.73122C69.374 6.02405 67.3313 6.5742 66.283 6.6017C65.8529 6.6017 61.8212 5.41889 57.2787 3.96101C52.7631 2.50314 48.57 1.15528 47.9518 0.96273C47.011 0.68766 46.6347 0.715164 44.8608 1.2378ZM50.2365 5.74898C52.0911 6.35413 53.9457 6.93179 54.3758 7.04182C54.779 7.12434 55.1015 7.28938 55.1015 7.39941C55.1015 7.48193 53.3006 7.78451 51.0966 8.05958C47.3336 8.5272 46.8498 8.5272 43.4899 8.11459C39.3506 7.61946 37.9261 7.3719 38.3024 7.28938C39.2162 7.04182 41.0709 6.46416 43.5437 5.66646C45.1027 5.14382 46.4735 4.7037 46.6079 4.7037C46.7423 4.6762 48.3819 5.17133 50.2365 5.74898ZM20.5625 6.79425C23.0622 7.67448 23.3847 7.83952 22.6321 7.92204C22.1483 7.97706 21.1269 7.86703 20.3743 7.70199C19.6217 7.53694 18.9498 7.48193 18.8691 7.56445C18.681 7.72949 19.998 8.22462 21.6108 8.58221C23.5191 8.99482 22.6321 9.35242 19.6217 9.37992C18.3047 9.40743 17.2027 9.51746 17.2027 9.65499C17.2027 9.79253 17.4714 9.90256 17.8209 9.90256C18.1434 9.90256 18.6003 10.0126 18.7885 10.1501C19.111 10.3702 19.0573 10.4527 18.5197 10.5627C18.1703 10.6453 17.3908 10.8103 16.7995 10.9478L15.7243 11.2229L17.2027 11.2504L18.681 11.3054L17.3371 11.9931C16.6113 12.3507 15.805 12.8458 15.5899 13.0934C15.2405 13.4785 15.2674 13.506 15.9931 13.3134C16.7726 13.1484 16.7457 13.2034 15.3212 14.6888C13.8966 16.2017 13.8428 16.2292 13.7622 15.5415C13.4934 13.451 16.2082 5.77648 17.1758 5.77648C17.4177 5.77648 18.9229 6.24411 20.5625 6.79425ZM78.3246 7.757C79.6417 10.5627 80.9318 15.7341 80.3943 16.0642C80.1792 16.2017 79.8298 15.8441 78.2171 13.9186L77.5451 13.1209L78.3246 13.3134C79.561 13.616 78.7547 12.8458 77.0613 12.0756L75.6636 11.4155L77.142 11.2779L78.6203 11.1404L77.3032 10.9203C75.4755 10.5902 75.1261 10.4252 75.583 10.1501C75.7712 10.0126 76.2012 9.90256 76.5506 9.90256C76.9001 9.90256 77.1151 9.79253 77.0344 9.65499C76.9538 9.54497 75.7712 9.40743 74.4272 9.37992C71.5781 9.35242 70.4761 8.96732 72.3307 8.66473C73.7284 8.41718 75.5293 7.72949 75.5293 7.42692C75.5293 7.31689 74.9379 7.39941 74.2122 7.61946C73.4596 7.83952 72.3576 7.97706 71.7125 7.92204C70.6105 7.83952 70.6642 7.81201 73.379 6.82175C74.9379 6.27161 76.47 5.80399 76.7925 5.80399C77.2764 5.77648 77.572 6.16158 78.3246 7.757ZM42.0654 10.3702C46.124 10.9753 47.9787 10.9753 51.9567 10.3702C55.666 9.82004 63.4339 9.71001 66.2024 10.1501C71.3093 11.0028 75.6905 14.0836 79.8298 19.7776C81.0125 21.373 81.9801 22.8034 81.9801 22.9134C81.9801 23.051 80.9318 22.1432 79.6686 20.9329C76.9001 18.2922 76.0399 17.9622 78.3784 20.4103C84.6411 27.0395 86.5495 30.8905 88.1353 39.9954C88.9417 44.5616 89.7749 55.2894 89.318 55.2894C88.8073 55.2894 87.2752 49.4579 86.9527 46.102C86.8183 44.7816 86.6839 44.3415 86.5226 44.6441C86.3613 44.8917 86.3882 46.0745 86.5495 47.5048C86.9795 51.3008 86.9258 51.2458 85.7431 46.4871C85.4206 45.1942 84.9368 42.361 84.6411 40.1879C84.3723 37.9874 84.0498 36.1444 83.9691 36.0619C83.6466 35.7868 84.1035 41.8659 84.5336 44.149C85.5012 49.1003 85.77 51.5484 85.9313 56.2796C86.0657 60.9008 85.9313 63.5415 85.555 63.1564C85.098 62.6888 83.8616 58.9478 83.4316 56.6647C82.9209 54.0516 82.9209 54.0516 82.8402 55.5094C82.7865 56.3071 82.9477 57.71 83.1897 58.6452L83.5928 60.3232L82.3564 64.3392C81.1469 68.2728 79.7492 71.7937 79.4266 71.7937C79.346 71.7937 79.3191 71.7111 79.3729 71.6011C79.6954 70.9685 80.9318 66.5398 80.8512 66.2647C80.7975 66.0997 80.2061 67.365 79.561 69.0705C78.1634 72.7839 76.2281 76.8825 75.7712 77.1851C75.368 77.4326 75.4486 77.2126 76.7119 73.8567C77.2226 72.4813 77.7064 70.7484 77.787 70.0057C77.9483 68.7404 77.8946 68.8229 77.0076 71.2435C76.47 72.6739 75.9324 73.9667 75.7712 74.1318C75.6368 74.2693 75.583 72.3163 75.6636 68.9054C75.7443 65.8796 75.7443 63.514 75.6636 63.6791C75.6099 63.8166 75.1261 65.3845 74.6154 67.1175C73.7553 70.0332 72.3038 73.7192 72.3038 73.004C72.3038 72.8114 72.6264 71.5736 73.0027 70.2533C73.379 68.9054 73.809 67.1175 73.9434 66.2922C74.1047 65.467 74.266 64.5593 74.3466 64.2842C74.4272 64.0366 74.4003 63.8166 74.266 63.8166C74.1584 63.8166 73.8359 64.7793 73.5671 65.9346C72.8683 68.8779 70.6911 75.3696 69.5353 77.9278C68.2183 80.871 64.9928 84.1719 62.0093 85.6848C60.8804 86.2624 59.859 86.6475 59.7515 86.5375C59.644 86.4275 60.0203 84.0068 60.5847 81.1186C61.1492 78.2303 61.5524 75.8372 61.4986 75.7547C61.418 75.6997 61.0148 76.4699 60.6116 77.4601C60.2084 78.4504 59.0795 80.4859 58.1119 81.9438C56.1766 84.9421 56.2304 84.8596 56.0423 84.6945C55.9885 84.612 56.2573 83.7043 56.6873 82.6315C57.1174 81.5862 57.5475 80.2934 57.6281 79.7707L57.7894 78.808L57.3324 79.7707C57.0905 80.2934 56.0691 82.4664 55.1015 84.612C53.4619 88.1054 52.8437 89.1232 52.548 88.7931C52.4943 88.7381 52.9243 87.3352 53.4888 85.6848C54.6983 82.2464 54.6446 82.4389 54.322 82.659C53.9457 82.8791 52.7899 85.5748 51.9567 88.1054C51.2847 90.2235 50.6934 91.3238 50.4246 91.0212C50.344 90.9662 50.5859 89.9759 50.9622 88.8756C52.0642 85.5473 51.5535 85.7398 50.1827 89.1507C48.9194 92.259 47.8712 93.7994 47.011 93.7994C46.2316 93.7994 45.2371 92.2865 44.0813 89.3983C43.4631 87.8028 42.8449 86.3175 42.7105 86.0974C42.3342 85.4922 42.6836 87.2802 43.3018 89.1232C43.9469 91.0212 43.9469 91.2412 43.2749 90.6361C42.9792 90.361 42.7373 89.9484 42.7373 89.7283C42.7373 89.2332 40.3451 83.0441 40.0226 82.6865C39.5388 82.1639 39.7807 83.2366 40.7214 85.7948C41.7697 88.6831 41.8503 89.0682 41.2321 88.5455C40.7483 88.1604 37.9798 82.5765 37.2272 80.4859C36.9316 79.7432 36.6628 79.2756 36.609 79.4682C36.5015 79.8258 37.5229 83.2366 37.8992 83.7593C38.0067 83.8968 38.168 84.2819 38.2755 84.557C38.4368 85.0246 38.383 85.0246 38.0067 84.6945C37.2272 84.0344 34.9694 80.4034 33.8136 77.9828C33.2223 76.6899 32.6847 75.6722 32.631 75.6997C32.6041 75.7547 33.0342 78.1203 33.5986 81.0086C34.1362 83.8693 34.5125 86.345 34.405 86.455C34.0824 86.8401 31.8515 85.6848 29.7818 84.1444C27.5778 82.4664 25.8038 80.3209 24.5943 77.8728C23.7073 76.0573 20.9119 67.5851 20.5625 65.6596C20.455 65.1094 20.2668 64.6968 20.1593 64.7793C19.8905 64.9444 20.5087 67.9152 21.3957 70.9409C21.772 72.1788 22.0139 73.2791 21.9602 73.3616C21.7451 73.5541 20.2399 69.5656 19.3529 66.4298C18.8691 64.7518 18.466 63.3765 18.4391 63.349C18.4122 63.3215 18.4391 65.8521 18.4928 68.9879C18.5466 72.1238 18.5197 74.5994 18.4391 74.5169C18.3584 74.4344 17.8477 73.059 17.3102 71.4911C16.7726 69.9232 16.2888 68.5753 16.2082 68.4928C15.6168 67.9152 17.1489 73.5816 18.0628 75.4521C18.3584 76.0298 18.5466 76.7175 18.466 76.965C18.3584 77.5702 16.2082 73.2791 14.918 69.8407C13.3859 65.7146 13.3321 65.6321 13.2515 65.9071C13.1709 66.1547 13.8697 68.7954 14.6492 71.3811C14.7298 71.6836 14.5148 71.3536 14.1385 70.6384C13.0096 68.5203 10.9399 61.9186 10.9399 60.3782C10.9131 59.608 11.0743 57.9301 11.2625 56.5822C11.7463 53.0888 11.5044 53.1438 10.698 56.7197C9.99919 59.8831 8.87029 63.2664 8.54775 63.2664C8.19832 63.2664 7.9833 59.4705 8.17145 55.8395C8.33272 52.1811 8.57463 50.3381 9.62289 44.0114C10.1873 40.7106 10.6443 34.2464 10.2142 36.0344C10.0798 36.557 9.75728 38.5375 9.51538 40.4355C9.1122 43.6263 8.19832 47.9725 7.55324 49.9255L7.25757 50.7507L7.36509 49.898C7.76827 47.0922 7.8489 44.7541 7.58012 44.9467C7.39197 45.0567 7.25757 45.5243 7.25757 45.9644C7.25757 48 5.34919 55.2894 4.81162 55.2894C4.65035 55.2894 4.59659 54.9043 4.67723 54.3816C4.75786 53.914 4.89226 52.016 4.97289 50.2005C5.40295 41.5083 6.72 34.6865 8.89717 29.7352C9.73041 27.8372 12.6064 23.7937 14.7029 21.5931C15.4018 20.8229 16.2888 19.8602 16.6651 19.42C18.009 17.8246 16.2888 19.145 14.1385 21.318C13.0096 22.4733 12.0957 23.3261 12.0957 23.2435C12.0957 22.6934 15.5899 17.9897 17.2564 16.3117C20.6969 12.8458 22.659 11.553 26.0188 10.6177C29.4593 9.65499 36.3402 9.54497 42.0654 10.3702Z" fill="#05C2B6"/>
<path d="M39.0814 11.4154C39.3771 11.6355 39.7265 11.828 39.8609 11.828C39.9684 11.828 40.6135 12.2131 41.2854 12.6533C42.5487 13.561 44.0002 14.8538 43.7314 14.8538C43.6239 14.8538 42.4412 14.2487 41.0704 13.4785C39.6996 12.7358 37.7912 11.9106 36.8236 11.663C34.8077 11.1404 32.093 11.2504 30.6415 11.9381L29.7008 12.3782L31.1791 12.2406L32.6574 12.0756L30.6415 12.8733C29.5395 13.3134 28.1956 13.8911 27.6849 14.1662C26.8785 14.6063 26.8247 14.6888 27.2548 14.8538C27.6849 14.9914 27.5236 15.1839 26.2603 15.9266C24.7551 16.8068 23.3843 18.1822 23.3843 18.7874C23.3843 19.0074 23.4649 19.0074 23.5993 18.8424C23.7068 18.6773 24.0831 18.3197 24.4325 18.0172C24.782 17.7146 24.5132 18.2097 23.8412 19.1174C22.2554 21.208 22.2285 21.4555 23.7337 21.153C24.3519 21.0429 24.9701 20.9329 25.0776 20.9054C25.212 20.9054 24.8089 21.4831 24.1906 22.1982C21.1265 25.7742 19.3256 29.5151 19.1912 32.5959C19.1106 34.4114 19.1106 34.4389 19.3256 33.1461C19.5675 31.6607 20.4008 29.3226 21.234 27.7822C21.9328 26.4894 21.906 26.8194 21.0996 28.965C20.6695 30.1753 20.2664 32.2384 19.9169 35.2641C19.1912 41.3982 19.0568 42.9111 19.1912 42.9111C19.245 42.9111 19.7825 42.0859 20.347 41.0406L21.3684 39.1977L21.5297 44.2865C21.7716 51.7134 22.7392 56.6647 24.6207 59.8831L25.3733 61.2034L25.5615 60.3782C25.669 59.9106 25.7496 58.8653 25.7765 58.0126C25.7765 57.1599 25.884 56.3897 25.9646 56.3071C26.0721 56.1971 26.5022 56.8298 26.9591 57.71C29.3782 62.4412 33.0606 68.3003 34.8615 70.2808L35.856 71.3811L36.0441 70.5558C36.1516 70.0882 36.2323 69.263 36.2591 68.7129C36.3129 67.145 36.743 67.2275 37.0924 68.8229C37.4418 70.4458 38.6513 73.3066 38.6782 72.5914C38.7051 72.3438 38.4632 71.3535 38.1944 70.3908C37.9256 69.428 37.6031 68.2452 37.5224 67.8051L37.3612 66.9799L37.845 67.6401C38.0869 67.9977 38.5438 68.7404 38.8395 69.2905C42.8444 76.745 46.9299 83.8968 47.145 83.8143C47.2794 83.7593 49.4565 79.9633 51.9831 75.3971C54.5097 70.8034 56.6062 67.1725 56.66 67.3375C56.7138 67.5025 56.445 68.8504 56.0418 70.3083C55.6655 71.7662 55.3967 73.004 55.4505 73.059C55.6117 73.224 56.5794 70.6934 57.1976 68.4928L57.6814 66.7048L57.8695 68.7679C57.9771 69.8957 58.1652 70.9134 58.2996 71.051C58.8909 71.6561 65.073 62.4137 67.3577 57.4349C67.6265 56.8573 67.9221 56.3897 68.0297 56.3897C68.2716 56.3897 68.5403 58.1501 68.5403 59.7455C68.5403 60.4882 68.621 61.0659 68.7554 61.0659C68.8629 61.0659 69.2661 60.4057 69.6961 59.608C71.6314 55.8395 72.5721 50.7782 72.5721 43.9289C72.5721 38.73 72.5453 38.7576 74.1042 41.4533L75.0181 43.0487L74.8568 40.8481C74.5074 36.1719 73.8354 31.4131 73.2172 29.4601C72.8678 28.3323 72.599 27.3696 72.6528 27.3146C72.8678 27.122 74.4268 31.0005 74.6149 32.1008C74.7224 32.761 74.9106 33.2836 75.0718 33.2836C75.4213 33.2836 75.1256 31.4406 74.4536 29.5151C73.7817 27.5346 71.8195 24.3163 70.0993 22.4183C68.7016 20.8504 68.7554 20.7404 70.5562 21.1805C71.1476 21.318 71.6583 21.373 71.712 21.318C71.8464 21.1805 70.7982 19.6126 69.938 18.6223C69.1317 17.7421 69.2661 17.632 70.1531 18.4298C71.2282 19.3925 71.1207 18.7598 69.9918 17.577C69.4273 16.9719 68.4597 16.2017 67.8684 15.8991C66.4976 15.1839 66.4707 15.1564 66.9008 14.8538C67.3308 14.5788 65.5299 13.561 63.2453 12.8183C62.4658 12.5432 61.8207 12.2682 61.8207 12.1856C61.8207 12.1031 62.4658 12.1306 63.2453 12.2131L64.643 12.3782L63.5678 11.9381C62.9765 11.718 61.6325 11.4429 60.6112 11.3604C57.8695 11.1404 55.6117 11.9106 51.6606 14.3587C51.1768 14.6613 50.7198 14.8538 50.6392 14.7713C50.4242 14.5512 52.3594 12.9558 53.9453 12.0481C55.7999 10.9753 55.3698 10.6727 53.4077 11.663C52.01 12.3507 50.2898 13.8636 49.5103 15.0464C49.2953 15.404 49.0265 15.679 48.919 15.679C48.8114 15.679 48.4083 14.9363 48.0051 14.0286C47.6019 13.1209 47.1987 12.3782 47.0912 12.4057C46.9837 12.4057 46.5536 13.1209 46.1236 14.0286L45.371 15.624L43.812 14.0011C42.925 13.0659 41.6617 12.1031 40.8285 11.6905C39.1889 10.9203 38.2482 10.7553 39.0814 11.4154ZM37.2268 17.7146C37.9794 18.0722 39.2158 18.8699 39.9953 19.5025C40.8016 20.1627 41.5005 20.6303 41.5542 20.5478C41.6349 20.4928 41.0973 19.8326 40.3984 19.1174C39.3233 18.0172 39.2158 17.8521 39.7802 18.0172C40.1565 18.0997 40.721 18.5398 41.0704 18.9249C41.4198 19.3375 42.3068 20.3828 43.0325 21.2355C44.484 22.9684 45.7204 23.8762 45.1828 22.8584C45.0216 22.5558 44.7797 22.2257 44.6184 22.1432C44.2152 21.8957 43.2207 20.3553 43.4626 20.3553C43.597 20.3553 44.4571 21.098 45.3979 22.0057L47.0912 23.6836L48.9727 21.8682C50.8542 20.0252 51.8756 19.5851 50.3435 21.263C49.8866 21.7306 49.3759 22.4458 49.1877 22.8309L48.8383 23.5186L49.4565 22.9684C50.2629 22.2533 51.795 20.5478 52.6551 19.3925C53.2733 18.5948 54.2409 17.8796 54.7516 17.8796C54.8323 17.8796 54.4022 18.4298 53.784 19.1174C53.1927 19.7776 52.682 20.4103 52.682 20.4928C52.682 20.5753 53.4346 20.0527 54.3753 19.365C56.5256 17.7146 57.9233 17.0544 59.2672 17.0819L60.3424 17.1094L59.4016 17.4395C57.4126 18.0997 57.4932 18.2922 59.6973 18.1822C62.0357 18.0997 63.8097 18.3197 63.5678 18.7048C63.4872 18.8424 63.084 18.8149 62.6002 18.6498C61.0412 18.0997 61.5519 18.6223 63.4872 19.5851C65.3956 20.5478 67.1964 22.0882 66.847 22.4458C66.7395 22.5558 66.5245 22.5008 66.3094 22.3358C65.8256 21.9232 64.5086 21.428 64.5086 21.6756C64.5086 21.7856 65.1268 22.2808 65.8525 22.8034C66.6051 23.326 67.1964 23.8762 67.1964 24.0137C67.1964 24.6464 66.5513 26.4068 66.3094 26.4068C66.175 26.4068 65.5837 25.9667 65.0193 25.4441C63.0302 23.6011 59.5898 22.3633 58.4071 23.0785C58.0039 23.326 58.0577 23.3535 58.8103 23.3811C59.7242 23.3811 62.5464 24.2888 62.9496 24.7014C63.084 24.8389 62.3314 24.8939 61.2025 24.8114C59.5629 24.7014 59.0522 24.7839 58.1115 25.279C57.4932 25.6091 56.8213 26.1043 56.66 26.4068C56.1762 27.177 55.6924 27.0945 55.8536 26.2693C55.9074 25.8842 55.8536 25.5816 55.7461 25.5816C55.6117 25.5816 55.0473 27.0395 54.4828 28.8L53.4883 32.0458L54.2678 32.761C55.3161 33.7513 57.6276 34.604 59.8317 34.824C61.7132 35.0166 62.1164 34.6315 60.423 34.2464L59.536 34.0538L60.5574 33.8063C61.982 33.4762 63.6484 32.5409 63.971 31.9083C64.3473 31.2206 64.1054 31.2206 63.2453 31.9083C61.9282 32.981 62.3045 32.2108 64.1323 30.1478C65.1536 28.9925 66.0138 28.0573 66.0675 28.0573C66.1213 28.0573 66.0675 28.3048 65.9869 28.6349C65.8525 29.02 66.0406 29.5427 66.5513 30.2853C67.1964 31.2481 67.3039 31.7707 67.519 34.4389C67.6534 36.1169 67.7071 37.5472 67.6265 37.6023C67.5727 37.6573 67.3577 36.8321 67.1695 35.7593C66.9814 34.6865 66.7126 33.7513 66.5782 33.6412C66.3094 33.4762 66.5245 36.1444 66.9545 38.8951C67.2502 40.5455 67.062 42.4985 66.632 42.8011C66.4976 42.8836 66.3901 42.7461 66.3901 42.526C66.3901 41.7833 66.0138 42.0309 65.0461 43.4613C64.5354 44.204 64.0247 44.8366 63.9172 44.8366C63.8097 44.8366 64.0247 44.149 64.401 43.3237C65.2074 41.3982 65.2074 41.1782 64.3473 42.2235L63.6753 43.0487L63.8635 41.9759C64.1591 40.2154 63.5409 41.0406 62.869 43.3237C62.5195 44.4515 62.1701 45.3868 62.0895 45.3868C62.0088 45.3868 61.7669 44.6716 61.5788 43.7914C61.2294 42.1409 60.5036 40.4905 60.4768 41.2882C60.4768 41.5358 60.6649 42.3335 60.8799 43.0762C61.3638 44.6716 61.3638 44.8366 61.0143 44.8366C60.8799 44.8366 60.7456 44.6716 60.7456 44.4515C60.7456 43.9014 58.3265 40.298 56.875 38.6475L55.6386 37.2722L56.8482 39.6928C57.5201 41.0131 58.0577 42.306 58.0577 42.5811C58.0577 42.8286 57.8158 42.526 57.547 41.9209C56.8482 40.3805 56.3643 40.1329 56.9019 41.5908C57.6276 43.5988 57.4395 46.2395 56.4181 49.0727C55.2623 52.1811 54.886 52.4836 53.0851 51.6034C52.1175 51.1358 51.4993 50.5581 50.8273 49.5404C50.3167 48.7702 49.9672 48.11 50.021 48.055C52.8164 46.102 55.5042 43.3788 55.2086 42.8286C54.1334 40.9581 52.7357 39.0601 52.1444 38.675C51.2036 38.1249 50.7736 38.1249 50.1016 38.6475C49.6178 39.0601 49.6178 39.0601 50.2898 38.8951C51.5799 38.62 51.3649 39.2527 49.9135 39.9954L48.5158 40.7106L47.9245 40.0229C47.1719 39.1702 46.9299 39.1702 46.3117 40.0504L45.801 40.7656L44.2958 39.9954C42.7638 39.2252 42.4681 38.5925 43.7852 38.8951C44.4571 39.0601 44.4571 39.0601 43.9464 38.6475C43.6239 38.3725 43.1401 38.2624 42.7369 38.3725C41.9036 38.565 40.3984 40.2154 39.5114 41.9209L38.8395 43.1862L40.5866 44.9742C41.5542 45.9919 42.7369 47.0372 43.2207 47.3398C43.6776 47.6699 44.0808 48.0275 44.0808 48.1925C44.0808 48.33 43.7314 48.9902 43.2745 49.6504C42.3606 50.9982 40.9091 51.9885 39.8071 51.9885C39.1889 51.9885 38.9739 51.7684 38.4632 50.7232C37.0655 47.8899 36.3667 43.7639 37.0655 42.416C37.173 42.1684 37.3612 41.5633 37.4687 41.1232C37.6299 40.353 37.6031 40.353 36.958 41.3982C35.8828 43.1587 36.1785 41.8659 37.388 39.6378C37.9794 38.5375 38.4094 37.5472 38.3288 37.4922C38.1944 37.3272 35.5603 40.7106 34.5389 42.361C34.1089 43.0487 33.5982 44.0389 33.41 44.5616L33.0337 45.5243L33.1681 44.2865C33.2487 43.5988 33.3562 42.5535 33.4638 41.9484L33.625 40.8481L33.1143 42.0859C32.8187 42.7736 32.4961 43.8464 32.3886 44.479C32.2005 45.6619 31.7167 46.1295 31.7167 45.1392C31.7167 44.4515 30.6953 41.0406 30.4265 40.8756C30.319 40.8206 30.2652 41.2057 30.319 41.7558L30.4265 42.7736L29.7276 42.0859L29.0019 41.3982L29.2707 42.1684C29.432 42.5811 29.7545 43.2962 29.9964 43.7639C30.6953 45.1392 30.2383 44.9742 29.1363 43.4063C28.3837 42.3885 28.0612 42.1134 28.0074 42.4435C27.8461 43.2137 27.5236 42.9662 27.1742 41.8384C26.9591 41.0682 26.9323 40.408 27.1473 39.5002C27.5236 37.7673 27.7655 33.2561 27.443 33.9713C27.3086 34.2739 27.1742 34.879 27.1742 35.3467C27.1473 35.7868 27.0129 36.3644 26.8516 36.5845C26.6366 36.8871 26.6097 36.2544 26.6904 34.3014C26.8247 31.9908 26.9323 31.4406 27.5236 30.5054C27.8999 29.9278 28.2224 29.1025 28.2224 28.6899V27.9197L28.9482 28.8825C29.3513 29.4051 30.2115 30.4229 30.8834 31.1381C32.093 32.5134 32.0661 32.8985 30.8028 31.8808C29.8889 31.1381 29.5932 31.3856 30.4265 32.1833C31.2597 33.0086 33.0068 33.8063 34.0013 33.8338C34.6195 33.8338 34.7271 33.9163 34.4045 34.1088C34.1895 34.2464 33.7325 34.3839 33.41 34.3839C33.0875 34.3839 32.738 34.5215 32.6305 34.714C32.3349 35.2091 35.9904 34.769 37.7106 34.0813C38.5438 33.7513 39.5383 33.1461 39.9146 32.7335L40.6672 31.9358L39.5652 28.5524C38.6782 25.8017 38.4901 25.3616 38.4632 26.1868C38.4363 27.4246 38.3019 27.4796 37.5762 26.5444C36.3935 24.9765 33.3025 24.2613 31.2866 25.0315C30.6684 25.279 30.6146 25.279 30.8834 24.9215C31.3135 24.3988 34.2432 23.3811 35.3184 23.3811C36.0441 23.3535 36.0979 23.326 35.6409 23.0785C34.512 22.3908 31.3404 23.5186 29.2438 25.3341C28.545 25.9117 27.8999 26.4068 27.7655 26.4068C27.6311 26.4068 27.3892 25.8842 27.201 25.224C26.9054 24.1237 26.9323 24.0412 27.6311 23.3811C28.0343 22.9959 28.6525 22.5008 29.0288 22.2533C30.0502 21.5656 29.5395 21.4005 28.3837 22.0332C27.8193 22.3358 27.3086 22.5283 27.2548 22.4733C26.9054 22.1157 28.7869 20.4928 30.5609 19.6401C32.4693 18.6773 33.1143 18.0997 31.5823 18.7048C31.1791 18.8699 30.7759 18.9249 30.6953 18.8424C30.2921 18.4573 31.206 18.2922 33.8669 18.2922C36.8505 18.2922 37.0117 18.1547 34.8077 17.4395L33.7325 17.0819H34.8077C35.399 17.0544 36.4742 17.357 37.2268 17.7146ZM38.3019 28.9925C40.2909 31.1381 40.2641 31.4957 38.1138 31.2481C37.1999 31.1656 35.9366 30.8355 35.2915 30.5054C34.2164 29.9828 32.2542 28.0023 32.2542 27.4246C32.2542 27.2871 33.2487 27.2045 34.5389 27.2596L36.8236 27.3696L38.3019 28.9925ZM61.8207 27.5071C61.8207 28.0298 59.8317 30.0378 58.7565 30.5879C57.332 31.3306 54.5635 31.6057 54.5635 31.0005C54.5635 30.2578 56.66 27.9472 57.762 27.4521C58.434 27.1495 61.8207 27.2045 61.8207 27.5071ZM49.9672 55.3719L52.225 56.2521L52.8432 58.1501C53.1927 59.1954 53.5152 60.1031 53.569 60.1581C53.6227 60.2131 54.0528 59.608 54.5366 58.8378C55.1548 57.82 55.4773 57.4899 55.6924 57.71C55.9074 57.9301 55.7461 58.3152 55.1548 59.0854C53.8109 60.7908 53.4883 61.0109 53.0583 60.4057C52.7088 59.9106 52.6282 59.9381 51.5531 60.9558C50.2091 62.2212 48.0588 63.349 47.0643 63.349C46.043 63.349 44.0002 62.2762 42.6294 61.0384C41.9843 60.4607 41.393 59.9656 41.3123 59.9656C41.2317 59.9656 41.1242 60.2131 41.0435 60.5432C40.9091 61.0659 40.7747 60.9833 39.6727 59.8005C38.4363 58.4527 38.2213 57.9301 38.7051 57.6275C38.8395 57.545 39.2695 58.0951 39.6458 58.8653C40.0221 59.6355 40.4522 60.1856 40.5597 60.1031C40.6941 60.0481 41.0167 59.2229 41.2854 58.3152C41.5542 57.3799 41.9036 56.5272 42.0649 56.3897C42.6025 55.922 46.3655 54.5192 47.0375 54.5192C47.4138 54.5192 48.7308 54.9043 49.9672 55.3719ZM40.8554 57.1323C40.8554 57.2699 40.721 57.545 40.5866 57.765C40.3447 58.1226 40.2909 58.1226 40.049 57.765C39.6458 57.1599 39.7265 56.9398 40.3178 56.9398C40.6135 56.9398 40.8554 57.0223 40.8554 57.1323ZM54.2947 57.2699C54.2947 57.7925 53.8377 58.4252 53.7034 58.1501C53.2464 57.2974 53.2733 56.9398 53.7571 56.9398C54.0528 56.9398 54.2947 57.1048 54.2947 57.2699Z" fill="#05C2B6"/>
<path d="M39.6728 75.9747C39.9684 76.965 41.0973 79.1656 41.393 79.3581C41.8768 79.6607 41.6618 78.7805 40.8285 77.075C40.0222 75.4246 39.2696 74.7369 39.6728 75.9747Z" fill="#05C2B6"/>
<path d="M54.1074 75.6722C53.328 76.6899 52.2528 79.4957 52.656 79.4957C52.9517 79.4957 54.6181 75.9472 54.5106 75.5896C54.4569 75.4246 54.2956 75.4521 54.1074 75.6722Z" fill="#05C2B6"/>
</svg>
