<svg width="53" height="53" viewBox="0 0 53 53" fill="none" xmlns="http://www.w3.org/2000/svg">
<path d="M26.4996 0C11.8644 0 0 11.8647 0 26.4997C0 41.1344 11.8644 53 26.4996 53C41.1347 53 53 41.1344 53 26.4997C53 11.8647 41.1347 0 26.4996 0ZM26.5001 9.30795L42.1818 19.0866H10.8184L26.5001 9.30795ZM42.3772 34.7017H42.3756C42.3756 36.2702 41.1045 37.5412 39.5362 37.5412H13.464C11.8955 37.5412 10.6246 36.27 10.6246 34.7017V19.7088C10.6246 19.5429 10.6415 19.3816 10.6691 19.2231L25.6521 28.5659C25.6704 28.5774 25.6901 28.5851 25.709 28.5957C25.7287 28.6067 25.7489 28.6173 25.769 28.6274C25.8749 28.6819 25.9839 28.7259 26.0953 28.7547C26.1068 28.7579 26.1183 28.7593 26.1298 28.762C26.252 28.7908 26.3759 28.8088 26.4996 28.8088H26.5004C26.5013 28.8088 26.5022 28.8088 26.5022 28.8088C26.6259 28.8088 26.7497 28.7913 26.872 28.762C26.8835 28.7591 26.8949 28.7579 26.9064 28.7547C27.0177 28.7259 27.1264 28.6819 27.2327 28.6274C27.2529 28.6173 27.273 28.6067 27.2928 28.5957C27.3115 28.5851 27.3313 28.5774 27.3497 28.5659L42.3327 19.2231C42.3602 19.3816 42.3772 19.5425 42.3772 19.7088V34.7017Z" fill="#05C2B6"/>
</svg>
