<svg width="128" height="126" viewBox="0 0 128 126" fill="none" xmlns="http://www.w3.org/2000/svg">
<g filter="url(#filter0_di_57_172)">
<path d="M56 107C39.0294 107 30.5442 107 25.2721 101.728C20 96.4558 20 87.9695 20 70.9967C20 68.3543 20 65.8008 20 63.4342C20 61.3742 20 59.2127 20 57.002C20 40.0301 20 31.5442 25.2721 26.2721C30.5442 21 39.0294 21 56 21H72C88.9706 21 97.4558 21 102.728 26.2721C108 31.5442 108 40.0294 108 57V71C108 87.9706 108 96.4558 102.728 101.728C97.4558 107 88.9706 107 72 107H56Z" fill="#101014"/>
</g>
<path d="M63.5001 90.0001C78.1356 90.0001 90.0001 78.1356 90.0001 63.5001C90.0001 48.8645 78.1356 37 63.5001 37C48.8645 37 37 48.8645 37 63.5001C37 78.1356 48.8645 90.0001 63.5001 90.0001Z" fill="#05C2B6"/>
<path d="M69.6748 67.5798C71.8399 67.5798 73.6009 65.8326 73.6009 63.6852V51.8949C73.6009 49.7474 71.8399 48 69.6748 48H47.9255C45.7609 48 44 49.7474 44 51.8949V63.6852C44 65.8326 45.7609 67.5798 47.9255 67.5798H50.7824V71.6564C50.7824 72.1521 51.0834 72.5989 51.545 72.7886C51.698 72.8512 51.8584 72.8816 52.0174 72.8816C52.3388 72.8816 52.6549 72.7572 52.8912 72.5228L57.8732 67.5798H69.6748Z" fill="#101014"/>
<path d="M77.5634 58.1973H75.5771V63.6863C75.5771 66.9148 72.9294 69.5412 69.6748 69.5412H58.6918L56.3825 71.8326C56.6608 73.4375 58.0727 74.6628 59.7687 74.6628H69.3316L73.3419 78.6415C73.5781 78.8759 73.8943 79.0005 74.2157 79.0005C74.3747 79.0005 74.5351 78.9697 74.6881 78.907C75.1497 78.7173 75.4505 78.2707 75.4505 77.7751V74.6626H77.5635C79.4585 74.6626 81 73.133 81 71.253V61.6064C80.9999 59.7267 79.4583 58.1973 77.5634 58.1973Z" fill="#101014"/>
<defs>
<filter id="filter0_di_57_172" x="0" y="0" width="128" height="126" filterUnits="userSpaceOnUse" color-interpolation-filters="sRGB">
<feFlood flood-opacity="0" result="BackgroundImageFix"/>
<feColorMatrix in="SourceAlpha" type="matrix" values="0 0 0 0 0 0 0 0 0 0 0 0 0 0 0 0 0 0 127 0" result="hardAlpha"/>
<feOffset dy="-1"/>
<feGaussianBlur stdDeviation="10"/>
<feComposite in2="hardAlpha" operator="out"/>
<feColorMatrix type="matrix" values="0 0 0 0 0 0 0 0 0 0 0 0 0 0 0 0 0 0 0.5 0"/>
<feBlend mode="normal" in2="BackgroundImageFix" result="effect1_dropShadow_57_172"/>
<feBlend mode="normal" in="SourceGraphic" in2="effect1_dropShadow_57_172" result="shape"/>
<feColorMatrix in="SourceAlpha" type="matrix" values="0 0 0 0 0 0 0 0 0 0 0 0 0 0 0 0 0 0 127 0" result="hardAlpha"/>
<feOffset dy="4"/>
<feGaussianBlur stdDeviation="2"/>
<feComposite in2="hardAlpha" operator="arithmetic" k2="-1" k3="1"/>
<feColorMatrix type="matrix" values="0 0 0 0 0 0 0 0 0 0 0 0 0 0 0 0 0 0 0.25 0"/>
<feBlend mode="normal" in2="shape" result="effect2_innerShadow_57_172"/>
</filter>
</defs>
</svg>
