<svg width="17" height="17" viewBox="0 0 17 17" fill="none" xmlns="http://www.w3.org/2000/svg">
<path d="M12.8882 6.13017H12.6113V4.11113C12.6114 1.84426 10.767 0 8.49984 0C6.23279 0 4.38837 1.84426 4.38837 4.11113V6.13017H4.11131C3.30365 6.13017 2.64648 6.78733 2.64648 7.59499V15.5351C2.64648 16.3428 3.30365 16.9999 4.11131 16.9999H12.8882C13.6959 16.9999 14.353 16.3428 14.353 15.5351V7.59499C14.353 6.78733 13.6959 6.13017 12.8882 6.13017ZM5.64393 4.11113C5.64393 2.53657 6.92511 1.25556 8.49984 1.25556C10.0746 1.25556 11.3557 2.53657 11.3557 4.11113V6.13017H5.64393V4.11113ZM13.0975 15.5352C13.0975 15.6486 13.0016 15.7444 12.8882 15.7444H4.11131C3.99789 15.7444 3.90205 15.6486 3.90205 15.5352V7.59499C3.90205 7.48157 3.99789 7.38573 4.11131 7.38573H5.01615H11.9835H12.8882C13.0016 7.38573 13.0975 7.48157 13.0975 7.59499V15.5352Z" fill="#05C2B6"/>
<path d="M8.49985 9.7356C8.15315 9.7356 7.87207 10.0166 7.87207 10.3634V12.7669C7.87207 13.1137 8.15315 13.3947 8.49985 13.3947C8.84656 13.3947 9.12763 13.1137 9.12763 12.7669V10.3634C9.12763 10.0166 8.84656 9.7356 8.49985 9.7356Z" fill="#05C2B6"/>
</svg>
