<svg width="21" height="21" viewBox="0 0 21 21" fill="none" xmlns="http://www.w3.org/2000/svg">
<g clip-path="url(#clip0_24_107)">
<path d="M20.5817 8.73717H12.2627V0.418213H8.73727V8.73717H0.41832V12.2626H8.73727V20.5816H12.2627V12.2626H20.5817V8.73717Z" fill="white"/>
<path d="M12.2628 21H8.73723C8.50623 21 8.31891 20.8127 8.31891 20.5817V12.6811H0.418318C0.187318 12.6811 0 12.4938 0 12.2627V8.73719C0 8.50615 0.187318 8.31887 0.418318 8.31887H8.31887V0.418318C8.31887 0.187277 8.50623 0 8.73723 0H12.2628C12.4938 0 12.6811 0.187277 12.6811 0.418318V8.31887H20.5817C20.8127 8.31887 21 8.50615 21 8.73719V12.2627C21 12.4938 20.8127 12.681 20.5817 12.681H12.6811V20.5816C12.6811 20.8127 12.4938 21 12.2628 21ZM9.15555 20.1634H11.8444V12.2627C11.8444 12.0317 12.0317 11.8444 12.2627 11.8444H20.1633V9.15555H12.2628C12.0318 9.15555 11.8445 8.96827 11.8445 8.73723V0.836637H9.15559V8.73719C9.15559 8.96823 8.96827 9.15551 8.73727 9.15551H0.836637V11.8444H8.73719C8.96819 11.8444 9.15551 12.0316 9.15551 12.2627L9.15555 20.1634Z" fill="#05C2B6"/>
<path d="M17.4442 11.4204H13.2169C12.9859 11.4204 12.7986 11.2331 12.7986 11.0021C12.7986 10.771 12.9859 10.5837 13.2169 10.5837H17.4442C17.6752 10.5837 17.8625 10.771 17.8625 11.0021C17.8625 11.2331 17.6752 11.4204 17.4442 11.4204Z" fill="#05C2B6"/>
<path d="M19.1176 11.4204H18.8345C18.6035 11.4204 18.4162 11.2331 18.4162 11.0021C18.4162 10.771 18.6035 10.5837 18.8345 10.5837H19.1176C19.3486 10.5837 19.5359 10.771 19.5359 11.0021C19.5359 11.2331 19.3486 11.4204 19.1176 11.4204Z" fill="#05C2B6"/>
</g>
<defs>
<clipPath id="clip0_24_107">
<rect width="21" height="21" fill="white"/>
</clipPath>
</defs>
</svg>
