<svg width="53" height="53" viewBox="0 0 53 53" fill="none" xmlns="http://www.w3.org/2000/svg">
<g clip-path="url(#clip0_65_327)">
<path d="M26.5 0.828125C12.3175 0.828125 0.828125 12.3192 0.828125 26.5C0.828125 40.6808 12.3192 52.1719 26.5 52.1719C40.6825 52.1719 52.1719 40.6808 52.1719 26.5C52.1719 12.3192 40.6808 0.828125 26.5 0.828125ZM39.109 18.4158L34.8955 38.271C34.5842 39.6788 33.7461 40.02 32.5768 39.3575L26.1588 34.6272L23.0633 37.6085C22.7221 37.9497 22.4323 38.2395 21.7698 38.2395L22.2252 31.7072L34.1188 20.9615C34.6372 20.506 34.0045 20.2477 33.3204 20.7031L18.6212 29.9566L12.2861 27.979C10.9097 27.5451 10.8783 26.6027 12.5759 25.9402L37.3269 16.3952C38.4763 15.9812 39.48 16.6751 39.1074 18.4142L39.109 18.4158Z" fill="#05C2B6"/>
</g>
<defs>
<clipPath id="clip0_65_327">
<rect width="53" height="53" fill="white"/>
</clipPath>
</defs>
</svg>
