<svg width="53" height="53" viewBox="0 0 53 53" fill="none" xmlns="http://www.w3.org/2000/svg">
<g clip-path="url(#clip0_65_329)">
<path d="M26.5001 53.0001C41.1356 53.0001 53.0001 41.1356 53.0001 26.5001C53.0001 11.8645 41.1356 0 26.5001 0C11.8645 0 0 11.8645 0 26.5001C0 41.1356 11.8645 53.0001 26.5001 53.0001Z" fill="#05C2B6"/>
<path d="M40.3676 21.3864C40.3676 19.1648 38.5679 17.3643 36.3476 17.3643H17.4871C15.2673 17.3643 13.468 19.1653 13.468 21.3864V32.1718C13.468 34.3933 15.2676 36.1939 17.4871 36.1939H36.3473C38.568 36.1939 40.3672 34.3928 40.3672 32.1718V21.3864H40.3676ZM24.227 31.329V21.1989L31.9092 26.2642L24.227 31.329Z" fill="black"/>
</g>
<defs>
<clipPath id="clip0_65_329">
<rect width="53" height="53" fill="white"/>
</clipPath>
</defs>
</svg>
