<svg width="128" height="126" viewBox="0 0 128 126" fill="none" xmlns="http://www.w3.org/2000/svg">
<g filter="url(#filter0_di_57_164)">
<path d="M56 107C39.0294 107 30.5442 107 25.2721 101.728C20 96.4558 20 87.9695 20 70.9967C20 68.3543 20 65.8008 20 63.4342C20 61.3742 20 59.2127 20 57.002C20 40.0301 20 31.5442 25.2721 26.2721C30.5442 21 39.0294 21 56 21H72C88.9706 21 97.4558 21 102.728 26.2721C108 31.5442 108 40.0294 108 57V71C108 87.9706 108 96.4558 102.728 101.728C97.4558 107 88.9706 107 72 107H56Z" fill="#101014"/>
</g>
<g clip-path="url(#clip0_57_164)">
<path d="M64.5001 90.0001C79.1356 90.0001 91.0001 78.1356 91.0001 63.5001C91.0001 48.8645 79.1356 37 64.5001 37C49.8645 37 38 48.8645 38 63.5001C38 78.1356 49.8645 90.0001 64.5001 90.0001Z" fill="#05C2B6"/>
<path d="M78.3676 58.3864C78.3676 56.1648 76.5679 54.3643 74.3476 54.3643H55.4872C53.2673 54.3643 51.468 56.1653 51.468 58.3864V69.1718C51.468 71.3933 53.2677 73.1939 55.4872 73.1939H74.3473C76.568 73.1939 78.3673 71.3928 78.3673 69.1718V58.3864H78.3676ZM62.227 68.329V58.1989L69.9092 63.2642L62.227 68.329Z" fill="#101014"/>
</g>
<defs>
<filter id="filter0_di_57_164" x="0" y="0" width="128" height="126" filterUnits="userSpaceOnUse" color-interpolation-filters="sRGB">
<feFlood flood-opacity="0" result="BackgroundImageFix"/>
<feColorMatrix in="SourceAlpha" type="matrix" values="0 0 0 0 0 0 0 0 0 0 0 0 0 0 0 0 0 0 127 0" result="hardAlpha"/>
<feOffset dy="-1"/>
<feGaussianBlur stdDeviation="10"/>
<feComposite in2="hardAlpha" operator="out"/>
<feColorMatrix type="matrix" values="0 0 0 0 0 0 0 0 0 0 0 0 0 0 0 0 0 0 0.5 0"/>
<feBlend mode="normal" in2="BackgroundImageFix" result="effect1_dropShadow_57_164"/>
<feBlend mode="normal" in="SourceGraphic" in2="effect1_dropShadow_57_164" result="shape"/>
<feColorMatrix in="SourceAlpha" type="matrix" values="0 0 0 0 0 0 0 0 0 0 0 0 0 0 0 0 0 0 127 0" result="hardAlpha"/>
<feOffset dy="4"/>
<feGaussianBlur stdDeviation="2"/>
<feComposite in2="hardAlpha" operator="arithmetic" k2="-1" k3="1"/>
<feColorMatrix type="matrix" values="0 0 0 0 0 0 0 0 0 0 0 0 0 0 0 0 0 0 0.25 0"/>
<feBlend mode="normal" in2="shape" result="effect2_innerShadow_57_164"/>
</filter>
<clipPath id="clip0_57_164">
<rect width="53" height="53" fill="white" transform="translate(38 37)"/>
</clipPath>
</defs>
</svg>
